<?xml version="1.0" encoding="UTF-8" standalone="no"?><svg xmlns="http://www.w3.org/2000/svg" xmlns:xlink="http://www.w3.org/1999/xlink" contentStyleType="text/css" height="1501px" preserveAspectRatio="none" style="width:1078px;height:1501px;background:#FFFFFF;" version="1.1" viewBox="0 0 1078 1501" width="1078px" zoomAndPan="magnify"><defs/><g><!--cluster entity--><g id="cluster_entity"><path d="M8.5,38.5 L54.5,38.5 A3.75,3.75 0 0 1 57,41 L64,60.7969 L838.5,60.7969 A2.5,2.5 0 0 1 841,63.2969 L841,1473.5 A2.5,2.5 0 0 1 838.5,1476 L8.5,1476 A2.5,2.5 0 0 1 6,1473.5 L6,41 A2.5,2.5 0 0 1 8.5,38.5 " fill="none" style="stroke:#000000;stroke-width:1.5;"/><line style="stroke:#000000;stroke-width:1.5;" x1="6" x2="64" y1="60.7969" y2="60.7969"/><text fill="#000000" font-family="sans-serif" font-size="14" font-weight="bold" lengthAdjust="spacing" textLength="45" x="10" y="53.4951">entity</text></g><!--cluster map--><g id="cluster_map"><path d="M867.5,6 L901.5,6 A3.75,3.75 0 0 1 904,8.5 L911,28.2969 L1068.5,28.2969 A2.5,2.5 0 0 1 1071,30.7969 L1071,183.5 A2.5,2.5 0 0 1 1068.5,186 L867.5,186 A2.5,2.5 0 0 1 865,183.5 L865,8.5 A2.5,2.5 0 0 1 867.5,6 " fill="none" style="stroke:#000000;stroke-width:1.5;"/><line style="stroke:#000000;stroke-width:1.5;" x1="865" x2="911" y1="28.2969" y2="28.2969"/><text fill="#000000" font-family="sans-serif" font-size="14" font-weight="bold" lengthAdjust="spacing" textLength="33" x="869" y="20.9951">map</text></g><!--class entity.EnnemiType--><a href="EnnemiType.html" target="_top" title="EnnemiType.html" xlink:actuate="onRequest" xlink:href="EnnemiType.html" xlink:show="new" xlink:title="EnnemiType.html" xlink:type="simple"><g id="elem_entity.EnnemiType"><rect codeLine="3" fill="#F1F1F1" height="210.9688" id="entity.EnnemiType" rx="2.5" ry="2.5" style="stroke:#181818;stroke-width:0.5;" width="202" x="22" y="684"/><ellipse cx="75.75" cy="700" fill="#EB937F" rx="11" ry="11" style="stroke:#181818;stroke-width:1.0;"/><path d="M79.8594,706 L72.1406,706 L72.1406,693.6094 L79.8594,693.6094 L79.8594,695.7656 L74.5938,695.7656 L74.5938,698.4375 L79.3594,698.4375 L79.3594,700.5938 L74.5938,700.5938 L74.5938,703.8438 L79.8594,703.8438 L79.8594,706 Z " fill="#000000"/><text fill="#000000" font-family="sans-serif" font-size="14" lengthAdjust="spacing" textLength="86" x="96.25" y="704.8467">EnnemiType</text><line style="stroke:#181818;stroke-width:0.5;" x1="23" x2="223" y1="716" y2="716"/><ellipse cx="33" cy="729.6484" fill="none" rx="3" ry="3" style="stroke:#038048;stroke-width:1.0;"/><text fill="#000000" font-family="sans-serif" font-size="14" lengthAdjust="spacing" text-decoration="underline" textLength="55" x="42" y="732.9951">ZOMBIE</text><ellipse cx="33" cy="745.9453" fill="none" rx="3" ry="3" style="stroke:#038048;stroke-width:1.0;"/><text fill="#000000" font-family="sans-serif" font-size="14" lengthAdjust="spacing" text-decoration="underline" textLength="28" x="42" y="749.292">RAT</text><ellipse cx="33" cy="762.2422" fill="none" rx="3" ry="3" style="stroke:#038048;stroke-width:1.0;"/><text fill="#000000" font-family="sans-serif" font-size="14" lengthAdjust="spacing" text-decoration="underline" textLength="90" x="42" y="765.5889">COCKROACH</text><rect fill="none" height="6" style="stroke:#C82930;stroke-width:1.0;" width="6" x="30" y="775.5391"/><text fill="#000000" font-family="sans-serif" font-size="14" lengthAdjust="spacing" textLength="69" x="42" y="781.8857">health: int</text><rect fill="none" height="6" style="stroke:#C82930;stroke-width:1.0;" width="6" x="30" y="791.8359"/><text fill="#000000" font-family="sans-serif" font-size="14" lengthAdjust="spacing" textLength="82" x="42" y="798.1826">damage: int</text><line style="stroke:#181818;stroke-width:0.5;" x1="23" x2="223" y1="805.4844" y2="805.4844"/><rect fill="#F24D5C" height="6" style="stroke:#C82930;stroke-width:1.0;" width="6" x="30" y="816.1328"/><text fill="#000000" font-family="sans-serif" font-size="14" lengthAdjust="spacing" textLength="176" x="42" y="822.4795">EnnemiType(int, int, Item)</text><ellipse cx="33" cy="835.4297" fill="#84BE84" rx="3" ry="3" style="stroke:#038048;stroke-width:1.0;"/><text fill="#000000" font-family="sans-serif" font-size="14" lengthAdjust="spacing" textLength="117" x="42" y="838.7764">getDamage(): int</text><ellipse cx="33" cy="851.7266" fill="#84BE84" rx="3" ry="3" style="stroke:#038048;stroke-width:1.0;"/><text fill="#000000" font-family="sans-serif" font-size="14" lengthAdjust="spacing" textLength="103" x="42" y="855.0732">getHealth(): int</text><ellipse cx="33" cy="868.0234" fill="#84BE84" rx="3" ry="3" style="stroke:#038048;stroke-width:1.0;"/><text fill="#000000" font-family="sans-serif" font-size="14" lengthAdjust="spacing" textLength="144" x="42" y="871.3701">setDamage(int): void</text><ellipse cx="33" cy="884.3203" fill="#84BE84" rx="3" ry="3" style="stroke:#038048;stroke-width:1.0;"/><text fill="#000000" font-family="sans-serif" font-size="14" lengthAdjust="spacing" textLength="130" x="42" y="887.667">setHealth(int): void</text></g></a><!--class entity.State--><a href="State.html" target="_top" title="State.html" xlink:actuate="onRequest" xlink:href="State.html" xlink:show="new" xlink:title="State.html" xlink:type="simple"><g id="elem_entity.State"><rect codeLine="16" fill="#F1F1F1" height="96.8906" id="entity.State" rx="2.5" ry="2.5" style="stroke:#181818;stroke-width:0.5;" width="68" x="681" y="1257"/><ellipse cx="696" cy="1273" fill="#EB937F" rx="11" ry="11" style="stroke:#181818;stroke-width:1.0;"/><path d="M700.1094,1279 L692.3906,1279 L692.3906,1266.6094 L700.1094,1266.6094 L700.1094,1268.7656 L694.8438,1268.7656 L694.8438,1271.4375 L699.6094,1271.4375 L699.6094,1273.5938 L694.8438,1273.5938 L694.8438,1276.8438 L700.1094,1276.8438 L700.1094,1279 Z " fill="#000000"/><text fill="#000000" font-family="sans-serif" font-size="14" lengthAdjust="spacing" textLength="36" x="710" y="1277.8467">State</text><line style="stroke:#181818;stroke-width:0.5;" x1="682" x2="748" y1="1289" y2="1289"/><ellipse cx="692" cy="1302.6484" fill="none" rx="3" ry="3" style="stroke:#038048;stroke-width:1.0;"/><text fill="#000000" font-family="sans-serif" font-size="14" lengthAdjust="spacing" text-decoration="underline" textLength="37" x="701" y="1305.9951">ALIVE</text><ellipse cx="692" cy="1318.9453" fill="none" rx="3" ry="3" style="stroke:#038048;stroke-width:1.0;"/><text fill="#000000" font-family="sans-serif" font-size="14" lengthAdjust="spacing" text-decoration="underline" textLength="31" x="701" y="1322.292">SICK</text><ellipse cx="692" cy="1335.2422" fill="none" rx="3" ry="3" style="stroke:#038048;stroke-width:1.0;"/><text fill="#000000" font-family="sans-serif" font-size="14" lengthAdjust="spacing" text-decoration="underline" textLength="40" x="701" y="1338.5889">DEAD</text><line style="stroke:#181818;stroke-width:0.5;" x1="682" x2="748" y1="1345.8906" y2="1345.8906"/></g></a><!--class entity.Chest--><a href="Chest.html" target="_top" title="Chest.html" xlink:actuate="onRequest" xlink:href="Chest.html" xlink:show="new" xlink:title="Chest.html" xlink:type="simple"><g id="elem_entity.Chest"><rect codeLine="22" fill="#F1F1F1" height="80.5938" id="entity.Chest" rx="2.5" ry="2.5" style="stroke:#181818;stroke-width:0.5;" width="209" x="360.5" y="749"/><ellipse cx="440.25" cy="765" fill="#ADD1B2" rx="11" ry="11" style="stroke:#181818;stroke-width:1.0;"/><path d="M443.2188,770.6406 Q442.6406,770.9375 442,771.0781 Q441.3594,771.2344 440.6563,771.2344 Q438.1563,771.2344 436.8281,769.5938 Q435.5156,767.9375 435.5156,764.8125 Q435.5156,761.6875 436.8281,760.0313 Q438.1563,758.375 440.6563,758.375 Q441.3594,758.375 442,758.5313 Q442.6563,758.6875 443.2188,758.9844 L443.2188,761.7031 Q442.5938,761.125 442,760.8594 Q441.4063,760.5781 440.7813,760.5781 Q439.4375,760.5781 438.75,761.6563 Q438.0625,762.7188 438.0625,764.8125 Q438.0625,766.9063 438.75,767.9844 Q439.4375,769.0469 440.7813,769.0469 Q441.4063,769.0469 442,768.7813 Q442.5938,768.5 443.2188,767.9219 L443.2188,770.6406 Z " fill="#000000"/><text fill="#000000" font-family="sans-serif" font-size="14" lengthAdjust="spacing" textLength="41" x="460.75" y="769.8467">Chest</text><line style="stroke:#181818;stroke-width:0.5;" x1="361.5" x2="568.5" y1="781" y2="781"/><line style="stroke:#181818;stroke-width:0.5;" x1="361.5" x2="568.5" y1="789" y2="789"/><ellipse cx="371.5" cy="802.6484" fill="#84BE84" rx="3" ry="3" style="stroke:#038048;stroke-width:1.0;"/><text fill="#000000" font-family="sans-serif" font-size="14" lengthAdjust="spacing" textLength="131" x="380.5" y="805.9951">Chest(int, int, Item)</text><ellipse cx="371.5" cy="818.9453" fill="#84BE84" rx="3" ry="3" style="stroke:#038048;stroke-width:1.0;"/><text fill="#000000" font-family="sans-serif" font-size="14" lengthAdjust="spacing" textLength="183" x="380.5" y="822.292">useChest(Player): boolean</text></g></a><!--class entity.Item--><a href="Item.html" target="_top" title="Item.html" xlink:actuate="onRequest" xlink:href="Item.html" xlink:show="new" xlink:title="Item.html" xlink:type="simple"><g id="elem_entity.Item"><rect codeLine="27" fill="#F1F1F1" height="308.75" id="entity.Item" rx="2.5" ry="2.5" style="stroke:#181818;stroke-width:0.5;" width="204" x="245" y="1151"/><ellipse cx="327.75" cy="1167" fill="#EB937F" rx="11" ry="11" style="stroke:#181818;stroke-width:1.0;"/><path d="M331.8594,1173 L324.1406,1173 L324.1406,1160.6094 L331.8594,1160.6094 L331.8594,1162.7656 L326.5938,1162.7656 L326.5938,1165.4375 L331.3594,1165.4375 L331.3594,1167.5938 L326.5938,1167.5938 L326.5938,1170.8438 L331.8594,1170.8438 L331.8594,1173 Z " fill="#000000"/><text fill="#000000" font-family="sans-serif" font-size="14" lengthAdjust="spacing" textLength="30" x="348.25" y="1171.8467">Item</text><line style="stroke:#181818;stroke-width:0.5;" x1="246" x2="448" y1="1183" y2="1183"/><ellipse cx="256" cy="1196.6484" fill="none" rx="3" ry="3" style="stroke:#038048;stroke-width:1.0;"/><text fill="#000000" font-family="sans-serif" font-size="14" lengthAdjust="spacing" text-decoration="underline" textLength="27" x="265" y="1199.9951">KEY</text><ellipse cx="256" cy="1212.9453" fill="none" rx="3" ry="3" style="stroke:#038048;stroke-width:1.0;"/><text fill="#000000" font-family="sans-serif" font-size="14" lengthAdjust="spacing" text-decoration="underline" textLength="35" x="265" y="1216.292">HEAL</text><ellipse cx="256" cy="1229.2422" fill="none" rx="3" ry="3" style="stroke:#038048;stroke-width:1.0;"/><text fill="#000000" font-family="sans-serif" font-size="14" lengthAdjust="spacing" text-decoration="underline" textLength="69" x="265" y="1232.5889">GRENADE</text><ellipse cx="256" cy="1245.5391" fill="none" rx="3" ry="3" style="stroke:#038048;stroke-width:1.0;"/><text fill="#000000" font-family="sans-serif" font-size="14" lengthAdjust="spacing" text-decoration="underline" textLength="32" x="265" y="1248.8857">AMO</text><ellipse cx="256" cy="1261.8359" fill="none" rx="3" ry="3" style="stroke:#038048;stroke-width:1.0;"/><text fill="#000000" font-family="sans-serif" font-size="14" lengthAdjust="spacing" text-decoration="underline" textLength="40" x="265" y="1265.1826">NONE</text><ellipse cx="256" cy="1278.1328" fill="none" rx="3" ry="3" style="stroke:#038048;stroke-width:1.0;"/><text fill="#000000" font-family="sans-serif" font-size="14" lengthAdjust="spacing" text-decoration="underline" textLength="48" x="265" y="1281.4795">SCOPE</text><rect fill="none" height="6" style="stroke:#C82930;stroke-width:1.0;" width="6" x="253" y="1291.4297"/><text fill="#000000" font-family="sans-serif" font-size="14" lengthAdjust="spacing" textLength="36" x="265" y="1297.7764">H: int</text><rect fill="none" height="6" style="stroke:#C82930;stroke-width:1.0;" width="6" x="253" y="1307.7266"/><text fill="#000000" font-family="sans-serif" font-size="14" lengthAdjust="spacing" textLength="87" x="265" y="1314.0732">DAMAGE: int</text><rect fill="none" height="6" style="stroke:#C82930;stroke-width:1.0;" width="6" x="253" y="1324.0234"/><text fill="#000000" font-family="sans-serif" font-size="14" lengthAdjust="spacing" textLength="89" x="265" y="1330.3701">NAME: String</text><rect fill="none" height="6" style="stroke:#C82930;stroke-width:1.0;" width="6" x="253" y="1340.3203"/><text fill="#000000" font-family="sans-serif" font-size="14" lengthAdjust="spacing" textLength="88" x="265" y="1346.667">DESC: String</text><line style="stroke:#181818;stroke-width:0.5;" x1="246" x2="448" y1="1353.9688" y2="1353.9688"/><rect fill="#F24D5C" height="6" style="stroke:#C82930;stroke-width:1.0;" width="6" x="253" y="1364.6172"/><text fill="#000000" font-family="sans-serif" font-size="14" lengthAdjust="spacing" textLength="178" x="265" y="1370.9639">Item(int, int, String, String)</text><ellipse cx="256" cy="1383.9141" fill="#84BE84" rx="3" ry="3" style="stroke:#038048;stroke-width:1.0;"/><text fill="#000000" font-family="sans-serif" font-size="14" lengthAdjust="spacing" textLength="69" x="265" y="1387.2607">getH(): int</text><ellipse cx="256" cy="1400.2109" fill="#84BE84" rx="3" ry="3" style="stroke:#038048;stroke-width:1.0;"/><text fill="#000000" font-family="sans-serif" font-size="14" lengthAdjust="spacing" textLength="117" x="265" y="1403.5576">getDamage(): int</text><ellipse cx="256" cy="1416.5078" fill="#84BE84" rx="3" ry="3" style="stroke:#038048;stroke-width:1.0;"/><text fill="#000000" font-family="sans-serif" font-size="14" lengthAdjust="spacing" textLength="122" x="265" y="1419.8545">getName(): String</text><ellipse cx="256" cy="1432.8047" fill="#84BE84" rx="3" ry="3" style="stroke:#038048;stroke-width:1.0;"/><text fill="#000000" font-family="sans-serif" font-size="14" lengthAdjust="spacing" textLength="118" x="265" y="1436.1514">getDesc(): String</text><ellipse cx="256" cy="1449.1016" fill="#84BE84" rx="3" ry="3" style="stroke:#038048;stroke-width:1.0;"/><text fill="#000000" font-family="sans-serif" font-size="14" lengthAdjust="spacing" textLength="116" x="265" y="1452.4482">youFound(): void</text></g></a><!--class entity.Ennemi--><a href="Ennemi.html" target="_top" title="Ennemi.html" xlink:actuate="onRequest" xlink:href="Ennemi.html" xlink:show="new" xlink:title="Ennemi.html" xlink:type="simple"><g id="elem_entity.Ennemi"><rect codeLine="46" fill="#F1F1F1" height="194.6719" id="entity.Ennemi" rx="2.5" ry="2.5" style="stroke:#181818;stroke-width:0.5;" width="296" x="146" y="233"/><ellipse cx="263.75" cy="249" fill="#ADD1B2" rx="11" ry="11" style="stroke:#181818;stroke-width:1.0;"/><path d="M266.7188,254.6406 Q266.1406,254.9375 265.5,255.0781 Q264.8594,255.2344 264.1563,255.2344 Q261.6563,255.2344 260.3281,253.5938 Q259.0156,251.9375 259.0156,248.8125 Q259.0156,245.6875 260.3281,244.0313 Q261.6563,242.375 264.1563,242.375 Q264.8594,242.375 265.5,242.5313 Q266.1563,242.6875 266.7188,242.9844 L266.7188,245.7031 Q266.0938,245.125 265.5,244.8594 Q264.9063,244.5781 264.2813,244.5781 Q262.9375,244.5781 262.25,245.6563 Q261.5625,246.7188 261.5625,248.8125 Q261.5625,250.9063 262.25,251.9844 Q262.9375,253.0469 264.2813,253.0469 Q264.9063,253.0469 265.5,252.7813 Q266.0938,252.5 266.7188,251.9219 L266.7188,254.6406 Z " fill="#000000"/><text fill="#000000" font-family="sans-serif" font-size="14" lengthAdjust="spacing" textLength="52" x="284.25" y="253.8467">Ennemi</text><line style="stroke:#181818;stroke-width:0.5;" x1="147" x2="441" y1="265" y2="265"/><rect fill="none" height="6" style="stroke:#C82930;stroke-width:1.0;" width="6" x="154" y="275.6484"/><text fill="#000000" font-family="sans-serif" font-size="14" lengthAdjust="spacing" textLength="69" x="166" y="281.9951">health: int</text><rect fill="none" height="6" style="stroke:#C82930;stroke-width:1.0;" width="6" x="154" y="291.9453"/><text fill="#000000" font-family="sans-serif" font-size="14" lengthAdjust="spacing" textLength="82" x="166" y="298.292">damage: int</text><line style="stroke:#181818;stroke-width:0.5;" x1="147" x2="441" y1="305.5938" y2="305.5938"/><ellipse cx="157" cy="319.2422" fill="#84BE84" rx="3" ry="3" style="stroke:#038048;stroke-width:1.0;"/><text fill="#000000" font-family="sans-serif" font-size="14" lengthAdjust="spacing" textLength="198" x="166" y="322.5889">Ennemi(int, int, EnnemiType)</text><ellipse cx="157" cy="335.5391" fill="#84BE84" rx="3" ry="3" style="stroke:#038048;stroke-width:1.0;"/><text fill="#000000" font-family="sans-serif" font-size="14" lengthAdjust="spacing" text-decoration="underline" textLength="270" x="166" y="338.8857">pickEnemySymbol(EnnemiType): String</text><ellipse cx="157" cy="351.8359" fill="#84BE84" rx="3" ry="3" style="stroke:#038048;stroke-width:1.0;"/><text fill="#000000" font-family="sans-serif" font-size="14" lengthAdjust="spacing" textLength="117" x="166" y="355.1826">getDamage(): int</text><ellipse cx="157" cy="368.1328" fill="#84BE84" rx="3" ry="3" style="stroke:#038048;stroke-width:1.0;"/><text fill="#000000" font-family="sans-serif" font-size="14" lengthAdjust="spacing" textLength="103" x="166" y="371.4795">getHealth(): int</text><ellipse cx="157" cy="384.4297" fill="#84BE84" rx="3" ry="3" style="stroke:#038048;stroke-width:1.0;"/><text fill="#000000" font-family="sans-serif" font-size="14" lengthAdjust="spacing" textLength="144" x="166" y="387.7764">setDamage(int): void</text><ellipse cx="157" cy="400.7266" fill="#84BE84" rx="3" ry="3" style="stroke:#038048;stroke-width:1.0;"/><text fill="#000000" font-family="sans-serif" font-size="14" lengthAdjust="spacing" textLength="130" x="166" y="404.0732">setHealth(int): void</text><ellipse cx="157" cy="417.0234" fill="#84BE84" rx="3" ry="3" style="stroke:#038048;stroke-width:1.0;"/><text fill="#000000" font-family="sans-serif" font-size="14" lengthAdjust="spacing" textLength="167" x="166" y="420.3701">compareTo(Ennemi): int</text></g></a><!--class entity.Player--><a href="Player.html" target="_top" title="Player.html" xlink:actuate="onRequest" xlink:href="Player.html" xlink:show="new" xlink:title="Player.html" xlink:type="simple"><g id="elem_entity.Player"><rect codeLine="58" fill="#F1F1F1" height="569.5" id="entity.Player" rx="2.5" ry="2.5" style="stroke:#181818;stroke-width:0.5;" width="220" x="605" y="505"/><ellipse cx="690.25" cy="521" fill="#ADD1B2" rx="11" ry="11" style="stroke:#181818;stroke-width:1.0;"/><path d="M693.2188,526.6406 Q692.6406,526.9375 692,527.0781 Q691.3594,527.2344 690.6563,527.2344 Q688.1563,527.2344 686.8281,525.5938 Q685.5156,523.9375 685.5156,520.8125 Q685.5156,517.6875 686.8281,516.0313 Q688.1563,514.375 690.6563,514.375 Q691.3594,514.375 692,514.5313 Q692.6563,514.6875 693.2188,514.9844 L693.2188,517.7031 Q692.5938,517.125 692,516.8594 Q691.4063,516.5781 690.7813,516.5781 Q689.4375,516.5781 688.75,517.6563 Q688.0625,518.7188 688.0625,520.8125 Q688.0625,522.9063 688.75,523.9844 Q689.4375,525.0469 690.7813,525.0469 Q691.4063,525.0469 692,524.7813 Q692.5938,524.5 693.2188,523.9219 L693.2188,526.6406 Z " fill="#000000"/><text fill="#000000" font-family="sans-serif" font-size="14" lengthAdjust="spacing" textLength="41" x="710.75" y="525.8467">Player</text><line style="stroke:#181818;stroke-width:0.5;" x1="606" x2="824" y1="537" y2="537"/><rect fill="none" height="6" style="stroke:#C82930;stroke-width:1.0;" width="6" x="613" y="547.6484"/><text fill="#000000" font-family="sans-serif" font-size="14" lengthAdjust="spacing" textLength="88" x="625" y="553.9951">name: String</text><rect fill="none" height="6" style="stroke:#C82930;stroke-width:1.0;" width="6" x="613" y="563.9453"/><text fill="#000000" font-family="sans-serif" font-size="14" lengthAdjust="spacing" textLength="98" x="625" y="570.292">maxHealth: int</text><rect fill="none" height="6" style="stroke:#C82930;stroke-width:1.0;" width="6" x="613" y="580.2422"/><text fill="#000000" font-family="sans-serif" font-size="14" lengthAdjust="spacing" textLength="69" x="625" y="586.5889">health: int</text><rect fill="none" height="6" style="stroke:#C82930;stroke-width:1.0;" width="6" x="613" y="596.5391"/><text fill="#000000" font-family="sans-serif" font-size="14" lengthAdjust="spacing" textLength="69" x="625" y="602.8857">ammo: int</text><rect fill="none" height="6" style="stroke:#C82930;stroke-width:1.0;" width="6" x="613" y="612.8359"/><text fill="#000000" font-family="sans-serif" font-size="14" lengthAdjust="spacing" textLength="84" x="625" y="619.1826">maxItem: int</text><rect fill="none" height="6" style="stroke:#C82930;stroke-width:1.0;" width="6" x="613" y="629.1328"/><text fill="#000000" font-family="sans-serif" font-size="14" lengthAdjust="spacing" textLength="82" x="625" y="635.4795">damage: int</text><rect fill="none" height="6" style="stroke:#C82930;stroke-width:1.0;" width="6" x="613" y="645.4297"/><text fill="#000000" font-family="sans-serif" font-size="14" lengthAdjust="spacing" textLength="89" x="625" y="651.7764">precision: int</text><rect fill="none" height="6" style="stroke:#C82930;stroke-width:1.0;" width="6" x="613" y="661.7266"/><text fill="#000000" font-family="sans-serif" font-size="14" lengthAdjust="spacing" textLength="88" x="625" y="668.0732">score: Score</text><line style="stroke:#181818;stroke-width:0.5;" x1="606" x2="824" y1="675.375" y2="675.375"/><ellipse cx="616" cy="689.0234" fill="#84BE84" rx="3" ry="3" style="stroke:#038048;stroke-width:1.0;"/><text fill="#000000" font-family="sans-serif" font-size="14" lengthAdjust="spacing" textLength="141" x="625" y="692.3701">Player(int, int, String)</text><ellipse cx="616" cy="705.3203" fill="#84BE84" rx="3" ry="3" style="stroke:#038048;stroke-width:1.0;"/><text fill="#000000" font-family="sans-serif" font-size="14" lengthAdjust="spacing" textLength="122" x="625" y="708.667">getScore(): Score</text><ellipse cx="616" cy="721.6172" fill="#84BE84" rx="3" ry="3" style="stroke:#038048;stroke-width:1.0;"/><text fill="#000000" font-family="sans-serif" font-size="14" lengthAdjust="spacing" textLength="122" x="625" y="724.9639">getPrecision(): int</text><ellipse cx="616" cy="737.9141" fill="#84BE84" rx="3" ry="3" style="stroke:#038048;stroke-width:1.0;"/><text fill="#000000" font-family="sans-serif" font-size="14" lengthAdjust="spacing" textLength="149" x="625" y="741.2607">setPrecision(int): void</text><ellipse cx="616" cy="754.2109" fill="#84BE84" rx="3" ry="3" style="stroke:#038048;stroke-width:1.0;"/><text fill="#000000" font-family="sans-serif" font-size="14" lengthAdjust="spacing" textLength="130" x="625" y="757.5576">getMaxHealth(): int</text><ellipse cx="616" cy="770.5078" fill="#84BE84" rx="3" ry="3" style="stroke:#038048;stroke-width:1.0;"/><text fill="#000000" font-family="sans-serif" font-size="14" lengthAdjust="spacing" textLength="117" x="625" y="773.8545">getDamage(): int</text><ellipse cx="616" cy="786.8047" fill="#84BE84" rx="3" ry="3" style="stroke:#038048;stroke-width:1.0;"/><text fill="#000000" font-family="sans-serif" font-size="14" lengthAdjust="spacing" textLength="103" x="625" y="790.1514">getAmmo(): int</text><ellipse cx="616" cy="803.1016" fill="#84BE84" rx="3" ry="3" style="stroke:#038048;stroke-width:1.0;"/><text fill="#000000" font-family="sans-serif" font-size="14" lengthAdjust="spacing" textLength="122" x="625" y="806.4482">getName(): String</text><ellipse cx="616" cy="819.3984" fill="#84BE84" rx="3" ry="3" style="stroke:#038048;stroke-width:1.0;"/><text fill="#000000" font-family="sans-serif" font-size="14" lengthAdjust="spacing" textLength="103" x="625" y="822.7451">getHealth(): int</text><ellipse cx="616" cy="835.6953" fill="#84BE84" rx="3" ry="3" style="stroke:#038048;stroke-width:1.0;"/><text fill="#000000" font-family="sans-serif" font-size="14" lengthAdjust="spacing" textLength="116" x="625" y="839.042">getMaxItem(): int</text><ellipse cx="616" cy="851.9922" fill="#84BE84" rx="3" ry="3" style="stroke:#038048;stroke-width:1.0;"/><text fill="#000000" font-family="sans-serif" font-size="14" lengthAdjust="spacing" textLength="130" x="625" y="855.3389">initInventory(): void</text><ellipse cx="616" cy="868.2891" fill="#84BE84" rx="3" ry="3" style="stroke:#038048;stroke-width:1.0;"/><text fill="#000000" font-family="sans-serif" font-size="14" lengthAdjust="spacing" textLength="143" x="625" y="871.6357">setMaxItem(int): void</text><ellipse cx="616" cy="884.5859" fill="#84BE84" rx="3" ry="3" style="stroke:#038048;stroke-width:1.0;"/><text fill="#000000" font-family="sans-serif" font-size="14" lengthAdjust="spacing" textLength="157" x="625" y="887.9326">setMaxHealth(int): void</text><ellipse cx="616" cy="900.8828" fill="#84BE84" rx="3" ry="3" style="stroke:#038048;stroke-width:1.0;"/><text fill="#000000" font-family="sans-serif" font-size="14" lengthAdjust="spacing" textLength="130" x="625" y="904.2295">setAmmo(int): void</text><ellipse cx="616" cy="917.1797" fill="#84BE84" rx="3" ry="3" style="stroke:#038048;stroke-width:1.0;"/><text fill="#000000" font-family="sans-serif" font-size="14" lengthAdjust="spacing" textLength="130" x="625" y="920.5264">setHealth(int): void</text><ellipse cx="616" cy="933.4766" fill="#84BE84" rx="3" ry="3" style="stroke:#038048;stroke-width:1.0;"/><text fill="#000000" font-family="sans-serif" font-size="14" lengthAdjust="spacing" textLength="144" x="625" y="936.8232">setDamage(int): void</text><ellipse cx="616" cy="949.7734" fill="#84BE84" rx="3" ry="3" style="stroke:#038048;stroke-width:1.0;"/><text fill="#000000" font-family="sans-serif" font-size="14" lengthAdjust="spacing" textLength="151" x="625" y="953.1201">statsToString(): String</text><ellipse cx="616" cy="966.0703" fill="#84BE84" rx="3" ry="3" style="stroke:#038048;stroke-width:1.0;"/><text fill="#000000" font-family="sans-serif" font-size="14" lengthAdjust="spacing" textLength="166" x="625" y="969.417">addInventory(Item): void</text><ellipse cx="616" cy="982.3672" fill="#84BE84" rx="3" ry="3" style="stroke:#038048;stroke-width:1.0;"/><text fill="#000000" font-family="sans-serif" font-size="14" lengthAdjust="spacing" textLength="161" x="625" y="985.7139">inventoryFull(): boolean</text><ellipse cx="616" cy="998.6641" fill="#84BE84" rx="3" ry="3" style="stroke:#038048;stroke-width:1.0;"/><text fill="#000000" font-family="sans-serif" font-size="14" lengthAdjust="spacing" textLength="194" x="625" y="1002.0107">supInventory(Item): boolean</text><ellipse cx="616" cy="1014.9609" fill="#84BE84" rx="3" ry="3" style="stroke:#038048;stroke-width:1.0;"/><text fill="#000000" font-family="sans-serif" font-size="14" lengthAdjust="spacing" textLength="136" x="625" y="1018.3076">countItem(Item): int</text><ellipse cx="616" cy="1031.2578" fill="#84BE84" rx="3" ry="3" style="stroke:#038048;stroke-width:1.0;"/><text fill="#000000" font-family="sans-serif" font-size="14" lengthAdjust="spacing" textLength="164" x="625" y="1034.6045">afficherInventaire(): void</text><ellipse cx="616" cy="1047.5547" fill="#84BE84" rx="3" ry="3" style="stroke:#038048;stroke-width:1.0;"/><text fill="#000000" font-family="sans-serif" font-size="14" lengthAdjust="spacing" textLength="190" x="625" y="1050.9014">consommerItem(Item): void</text><ellipse cx="616" cy="1063.8516" fill="#84BE84" rx="3" ry="3" style="stroke:#038048;stroke-width:1.0;"/><text fill="#000000" font-family="sans-serif" font-size="14" lengthAdjust="spacing" textLength="149" x="625" y="1067.1982">setName(String): void</text></g></a><!--class entity.Comparable--><a href="Comparable.html" target="_top" title="Comparable.html" xlink:actuate="onRequest" xlink:href="Comparable.html" xlink:show="new" xlink:title="Comparable.html" xlink:type="simple"><g id="elem_entity.Comparable"><rect codeLine="93" fill="#F1F1F1" height="64.2969" id="entity.Comparable" rx="2.5" ry="2.5" style="stroke:#181818;stroke-width:0.5;" width="153" x="217.5" y="73.5"/><ellipse cx="242.85" cy="89.5" fill="#B4A7E5" rx="11" ry="11" style="stroke:#181818;stroke-width:1.0;"/><path d="M238.7719,85.2656 L238.7719,83.1094 L246.1625,83.1094 L246.1625,85.2656 L243.6938,85.2656 L243.6938,93.3438 L246.1625,93.3438 L246.1625,95.5 L238.7719,95.5 L238.7719,93.3438 L241.2406,93.3438 L241.2406,85.2656 L238.7719,85.2656 Z " fill="#000000"/><text fill="#000000" font-family="sans-serif" font-size="14" font-style="italic" lengthAdjust="spacing" textLength="87" x="259.15" y="94.3467">Comparable</text><rect fill="#FFFFFF" height="15.9688" style="stroke:#181818;stroke-width:1.0;stroke-dasharray:2.0,2.0;" width="9" x="364.5" y="70.5"/><text fill="#000000" font-family="sans-serif" font-size="12" font-style="italic" lengthAdjust="spacing" textLength="7" x="365.5" y="82.6387">T</text><line style="stroke:#181818;stroke-width:0.5;" x1="218.5" x2="369.5" y1="105.5" y2="105.5"/><line style="stroke:#181818;stroke-width:0.5;" x1="218.5" x2="369.5" y1="113.5" y2="113.5"/><ellipse cx="228.5" cy="127.1484" fill="#84BE84" rx="3" ry="3" style="stroke:#038048;stroke-width:1.0;"/><text fill="#000000" font-family="sans-serif" font-size="14" font-style="italic" lengthAdjust="spacing" textLength="127" x="237.5" y="130.4951">compareTo(T): int</text></g></a><!--class map.Element--><a href="../map/Element.html" target="_top" title="../map/Element.html" xlink:actuate="onRequest" xlink:href="../map/Element.html" xlink:show="new" xlink:title="../map/Element.html" xlink:type="simple"><g id="elem_map.Element"><rect codeLine="110" fill="#F1F1F1" height="129.4844" id="map.Element" rx="2.5" ry="2.5" style="stroke:#181818;stroke-width:0.5;" width="174" x="881" y="41"/><ellipse cx="935.25" cy="57" fill="#ADD1B2" rx="11" ry="11" style="stroke:#181818;stroke-width:1.0;"/><path d="M938.2188,62.6406 Q937.6406,62.9375 937,63.0781 Q936.3594,63.2344 935.6563,63.2344 Q933.1563,63.2344 931.8281,61.5938 Q930.5156,59.9375 930.5156,56.8125 Q930.5156,53.6875 931.8281,52.0313 Q933.1563,50.375 935.6563,50.375 Q936.3594,50.375 937,50.5313 Q937.6563,50.6875 938.2188,50.9844 L938.2188,53.7031 Q937.5938,53.125 937,52.8594 Q936.4063,52.5781 935.7813,52.5781 Q934.4375,52.5781 933.75,53.6563 Q933.0625,54.7188 933.0625,56.8125 Q933.0625,58.9063 933.75,59.9844 Q934.4375,61.0469 935.7813,61.0469 Q936.4063,61.0469 937,60.7813 Q937.5938,60.5 938.2188,59.9219 L938.2188,62.6406 Z " fill="#000000"/><text fill="#000000" font-family="sans-serif" font-size="14" lengthAdjust="spacing" textLength="57" x="955.75" y="61.8467">Element</text><line style="stroke:#181818;stroke-width:0.5;" x1="882" x2="1054" y1="73" y2="73"/><rect fill="none" height="6" style="stroke:#C82930;stroke-width:1.0;" width="6" x="889" y="83.6484"/><text fill="#000000" font-family="sans-serif" font-size="14" lengthAdjust="spacing" textLength="63" x="901" y="89.9951">posX: int</text><rect fill="none" height="6" style="stroke:#C82930;stroke-width:1.0;" width="6" x="889" y="99.9453"/><text fill="#000000" font-family="sans-serif" font-size="14" lengthAdjust="spacing" textLength="61" x="901" y="106.292">posY: int</text><rect fill="none" height="6" style="stroke:#C82930;stroke-width:1.0;" width="6" x="889" y="116.2422"/><text fill="#000000" font-family="sans-serif" font-size="14" lengthAdjust="spacing" textLength="83" x="901" y="122.5889">color: String</text><rect fill="none" height="6" style="stroke:#C82930;stroke-width:1.0;" width="6" x="889" y="132.5391"/><text fill="#000000" font-family="sans-serif" font-size="14" lengthAdjust="spacing" textLength="98" x="901" y="138.8857">symbol: String</text><rect fill="none" height="6" style="stroke:#C82930;stroke-width:1.0;" width="6" x="889" y="148.8359"/><text fill="#000000" font-family="sans-serif" font-size="14" lengthAdjust="spacing" textLength="148" x="901" y="155.1826">infos: ArrayList&lt;Info&gt;</text><line style="stroke:#181818;stroke-width:0.5;" x1="882" x2="1054" y1="162.4844" y2="162.4844"/></g></a><!--link entity.EnnemiType to entity.Item--><g id="link_entity.EnnemiType_entity.Item"><path codeLine="97" d="M161.74,895.35 C186.63,960.84 220.48,1046.58 254,1121 C257.71,1129.24 261.6,1137.65 265.59,1146.11 " fill="none" id="entity.EnnemiType-to-entity.Item" style="stroke:#181818;stroke-width:1.0;"/><polygon fill="#181818" points="267.82,1150.81,267.5741,1140.9642,265.6759,1146.2931,260.347,1144.3948,267.82,1150.81" style="stroke:#181818;stroke-width:1.0;"/><text fill="#000000" font-family="sans-serif" font-size="13" lengthAdjust="spacing" textLength="29" x="255" y="1117.0669">drop</text></g><!--reverse link map.Element to entity.Chest--><g id="link_map.Element_entity.Chest"><path codeLine="98" d="M887.87,184.62 C871.88,200.5 855.31,217.19 840,233 C725.37,351.39 678.08,367 588,505 C535.51,585.42 496.29,691.98 477.44,748.81 " fill="none" id="map.Element-backto-entity.Chest" style="stroke:#181818;stroke-width:1.0;"/><polygon fill="none" points="883.19,179.4,902.33,170.31,893.04,189.35,883.19,179.4" style="stroke:#181818;stroke-width:1.0;"/></g><!--link entity.Chest to entity.Item--><g id="link_entity.Chest_entity.Item"><path codeLine="99" d="M455.84,830.41 C440.46,897.4 408.65,1035.96 383.37,1146.07 " fill="none" id="entity.Chest-to-entity.Item" style="stroke:#181818;stroke-width:1.0;"/><polygon fill="#181818" points="382.25,1150.96,388.1561,1143.0785,383.3649,1146.0859,380.3575,1141.2947,382.25,1150.96" style="stroke:#181818;stroke-width:1.0;"/><text fill="#000000" font-family="sans-serif" font-size="13" lengthAdjust="spacing" textLength="29" x="392" y="1117.0669">item</text></g><!--reverse link map.Element to entity.Ennemi--><g id="link_map.Element_entity.Ennemi"><path codeLine="100" d="M872.3,180.26 C862.11,185.69 851.6,190.42 841,194 C805.59,205.95 709.73,195.09 673,202 C595.05,216.67 511.19,243.64 442.22,269.01 " fill="none" id="map.Element-backto-entity.Ennemi" style="stroke:#181818;stroke-width:1.0;"/><polygon fill="none" points="868.83,174.18,889.64,170.21,875.84,186.3,868.83,174.18" style="stroke:#181818;stroke-width:1.0;"/></g><!--reverse link entity.Comparable to entity.Ennemi--><g id="link_entity.Comparable_entity.Ennemi"><path codeLine="101" d="M294,157.66 C294,179.95 294,206.83 294,232.65 " fill="none" id="entity.Comparable-backto-entity.Ennemi" style="stroke:#181818;stroke-width:1.0;stroke-dasharray:7.0,7.0;"/><polygon fill="none" points="287,157.51,294,137.51,301,157.51,287,157.51" style="stroke:#181818;stroke-width:1.0;"/></g><!--link entity.Ennemi to entity.Item--><g id="link_entity.Ennemi_entity.Item"><path codeLine="102" d="M292.45,428.13 C291.06,570.02 291.74,842.95 312,1074 C314.04,1097.25 316.93,1121.71 320.2,1145.67 " fill="none" id="entity.Ennemi-to-entity.Item" style="stroke:#181818;stroke-width:1.0;"/><polygon fill="#181818" points="320.9,1150.77,323.6291,1141.3068,320.2149,1145.8172,315.7045,1142.403,320.9,1150.77" style="stroke:#181818;stroke-width:1.0;"/><text fill="#000000" font-family="sans-serif" font-size="13" lengthAdjust="spacing" textLength="29" x="313" y="794.0669">drop</text></g><!--link entity.Ennemi to entity.EnnemiType--><g id="link_entity.Ennemi_entity.EnnemiType"><path codeLine="103" d="M257.84,428.14 C230.41,501.44 192.68,602.28 164.11,678.64 " fill="none" id="entity.Ennemi-to-entity.EnnemiType" style="stroke:#181818;stroke-width:1.0;"/><polygon fill="#181818" points="162.24,683.64,169.1454,676.6175,163.9956,678.9584,161.6548,673.8085,162.24,683.64" style="stroke:#181818;stroke-width:1.0;"/><text fill="#000000" font-family="sans-serif" font-size="13" lengthAdjust="spacing" textLength="28" x="244" y="471.0669">type</text></g><!--reverse link map.Element to entity.Player--><g id="link_map.Element_entity.Player"><path codeLine="104" d="M937.38,189.05 C908.21,267.67 862.6,390.61 820.26,504.75 " fill="none" id="map.Element-backto-entity.Player" style="stroke:#181818;stroke-width:1.0;"/><polygon fill="none" points="930.91,186.37,944.43,170.05,944.03,191.23,930.91,186.37" style="stroke:#181818;stroke-width:1.0;"/></g><!--link entity.Player to entity.Item--><g id="link_entity.Player_entity.Item"><path codeLine="105" d="M604.89,1046.94 C599.12,1056.23 593.15,1065.29 587,1074 C549.4,1127.24 498.33,1178.33 452.96,1218.82 " fill="none" id="entity.Player-to-entity.Item" style="stroke:#181818;stroke-width:1.0;"/><polygon fill="#181818" points="449.14,1222.21,458.5241,1219.2204,452.877,1218.8882,453.2092,1213.2411,449.14,1222.21" style="stroke:#181818;stroke-width:1.0;"/><text fill="#000000" font-family="sans-serif" font-size="13" lengthAdjust="spacing" textLength="36" x="560" y="1117.0669">items</text><text fill="#000000" font-family="sans-serif" font-size="13" lengthAdjust="spacing" textLength="7" x="456.8979" y="1212.6236">*</text></g><!--link entity.Player to entity.State--><g id="link_entity.Player_entity.State"><path codeLine="106" d="M715,1074.19 C715,1142.31 715,1207.91 715,1251.56 " fill="none" id="entity.Player-to-entity.State" style="stroke:#181818;stroke-width:1.0;"/><polygon fill="#181818" points="715,1256.77,719,1247.77,715,1251.77,711,1247.77,715,1256.77" style="stroke:#181818;stroke-width:1.0;"/><text fill="#000000" font-family="sans-serif" font-size="13" lengthAdjust="spacing" textLength="33" x="716" y="1117.0669">state</text></g><text fill="#888888" font-family="sans-serif" font-size="10" lengthAdjust="spacing" textLength="186" x="439" y="1491.2822">UMLDoclet 2.1.0, PlantUML 1.2022.14</text><!--SRC=[nLPTRzem57tlhx0gJQAZfDiUKLKf2sb1BL0LDgr3VJ3156kn7SMcMjJrl-_Q3YGGcwvz6GyOVExdyRtNHWWXZXcH6Ku88bnHLQ3deoDKVWXVCnHpJXYT5Xb1irdr9rWfbZuyW3YgVPwbmeecBwZzSppyEeWzu5quzI3HEBg-6uTHVmVlh0XErQgBA5Uxm08p_4WSG1Lf2x1JPBu6Yh2J7Rds8r4zOwDrqhIYqRvnxKJbLXSW47WITD6GAFKT4YzxJ4-014soML_ZDxmPVFVHEnb4rnwe5uSzLm19YgL4qOf81H6OrHr1ss27ELrBOgLkKroG7FAU2v4IpBsfQoFWLo-l9NuTttkGVXpUUA2hktWKzdnyXSEn1ncDHrwIe_7jBjRfE-gm5mx3gzW1ZC8XR4zKJldZdaeyYTo8vgT6lHNPhCt2xljg-d35Zs0aQCmHWL4cCl71XLXVYZLVj0xKkYqrsv_RaU8-zRVtVTkQgv5K3O8JpqbcDFaLWr0nATXSfAsQXf-4_pGpZ4GYM8PpCXLbg7j-6bpRDWIkxGyFr_ecS9STmx_xleFmdX1cJ3YsmPQkuhUCyYmd2PLKS0Sc4v7hgFMoIvBDjT4jpIunkgQWcqO0ljruznrd9U0xBx0ot53ulfOCWSntjkjXjqDx74wOSge6_0dU1I8lMhvQtLWuKCvLyWU4J8hlxub_w2leTpaLbYOVONYng58sLvlB5Ds8NAxJjEMutwp3TTQmvHHCO6GgGs8frJWAl5pIP4LoQmzJMx2koS2bO0m4QzQSP9cgALl2FwiX498lzUimCZC7prDoFhtGJuJjVy-5ZUTIvJXHB_LvDVMFgjexizEvG7P8B7AHRIKOpe8u9GmOGET_EXtxNDd2zl5IwLBuzkjQTvNoDXs0Ws0VBcyhJs0rjCgYYnHy-mEmyscBbpDQspZ-U5nBGRf4p1EnYtH9MnSbaTLh7lpLJgIySql_iraGd870MRdXkH0o8N-unh6GzuxjHAGYTzyVqjohRepofP1T5EOvBcweLES3sBYe5KWjkuJeSaHB8VJoRNZJ4qbA5FeIV0u-dMf-k89TzE69v7PY_mK0]--></g></svg>