<?xml version="1.0" encoding="UTF-8" standalone="no"?><svg xmlns="http://www.w3.org/2000/svg" xmlns:xlink="http://www.w3.org/1999/xlink" contentStyleType="text/css" height="629px" preserveAspectRatio="none" style="width:684px;height:629px;background:#FFFFFF;" version="1.1" viewBox="0 0 684 629" width="684px" zoomAndPan="magnify"><defs/><g><!--cluster interfaces--><g id="cluster_interfaces"><path d="M8.5,6 L89.5,6 A3.75,3.75 0 0 1 92,8.5 L99,28.2969 L674.5,28.2969 A2.5,2.5 0 0 1 677,30.7969 L677,601.5 A2.5,2.5 0 0 1 674.5,604 L8.5,604 A2.5,2.5 0 0 1 6,601.5 L6,8.5 A2.5,2.5 0 0 1 8.5,6 " fill="none" style="stroke:#000000;stroke-width:1.5;"/><line style="stroke:#000000;stroke-width:1.5;" x1="6" x2="99" y1="28.2969" y2="28.2969"/><text fill="#000000" font-family="sans-serif" font-size="14" font-weight="bold" lengthAdjust="spacing" textLength="80" x="10" y="20.9951">interfaces</text></g><!--class interfaces.Fight--><a href="Fight.html" target="_top" title="Fight.html" xlink:actuate="onRequest" xlink:href="Fight.html" xlink:show="new" xlink:title="Fight.html" xlink:type="simple"><g id="elem_interfaces.Fight"><rect codeLine="3" fill="#F1F1F1" height="178.375" id="interfaces.Fight" rx="2.5" ry="2.5" style="stroke:#181818;stroke-width:0.5;" width="215" x="22.5" y="41"/><ellipse cx="108.75" cy="57" fill="#ADD1B2" rx="11" ry="11" style="stroke:#181818;stroke-width:1.0;"/><path d="M111.7188,62.6406 Q111.1406,62.9375 110.5,63.0781 Q109.8594,63.2344 109.1563,63.2344 Q106.6563,63.2344 105.3281,61.5938 Q104.0156,59.9375 104.0156,56.8125 Q104.0156,53.6875 105.3281,52.0313 Q106.6563,50.375 109.1563,50.375 Q109.8594,50.375 110.5,50.5313 Q111.1563,50.6875 111.7188,50.9844 L111.7188,53.7031 Q111.0938,53.125 110.5,52.8594 Q109.9063,52.5781 109.2813,52.5781 Q107.9375,52.5781 107.25,53.6563 Q106.5625,54.7188 106.5625,56.8125 Q106.5625,58.9063 107.25,59.9844 Q107.9375,61.0469 109.2813,61.0469 Q109.9063,61.0469 110.5,60.7813 Q111.0938,60.5 111.7188,59.9219 L111.7188,62.6406 Z " fill="#000000"/><text fill="#000000" font-family="sans-serif" font-size="14" lengthAdjust="spacing" textLength="34" x="129.25" y="61.8467">Fight</text><line style="stroke:#181818;stroke-width:0.5;" x1="23.5" x2="236.5" y1="73" y2="73"/><ellipse cx="33.5" cy="86.6484" fill="none" rx="3" ry="3" style="stroke:#038048;stroke-width:1.0;"/><text fill="#000000" font-family="sans-serif" font-size="14" lengthAdjust="spacing" textLength="59" x="42.5" y="89.9951">p: Player</text><ellipse cx="33.5" cy="102.9453" fill="none" rx="3" ry="3" style="stroke:#038048;stroke-width:1.0;"/><text fill="#000000" font-family="sans-serif" font-size="14" lengthAdjust="spacing" textLength="70" x="42.5" y="106.292">e: Ennemi</text><rect fill="none" height="6" style="stroke:#C82930;stroke-width:1.0;" width="6" x="30.5" y="116.2422"/><text fill="#000000" font-family="sans-serif" font-size="14" lengthAdjust="spacing" textLength="189" x="42.5" y="122.5889">haveTryToEscape: Boolean</text><line style="stroke:#181818;stroke-width:0.5;" x1="23.5" x2="236.5" y1="129.8906" y2="129.8906"/><ellipse cx="33.5" cy="143.5391" fill="#84BE84" rx="3" ry="3" style="stroke:#038048;stroke-width:1.0;"/><text fill="#000000" font-family="sans-serif" font-size="14" lengthAdjust="spacing" textLength="145" x="42.5" y="146.8857">Fight(Player, Ennemi)</text><ellipse cx="33.5" cy="159.8359" fill="#84BE84" rx="3" ry="3" style="stroke:#038048;stroke-width:1.0;"/><text fill="#000000" font-family="sans-serif" font-size="14" lengthAdjust="spacing" textLength="140" x="42.5" y="163.1826">inflictDamage(): void</text><ellipse cx="33.5" cy="176.1328" fill="#84BE84" rx="3" ry="3" style="stroke:#038048;stroke-width:1.0;"/><text fill="#000000" font-family="sans-serif" font-size="14" lengthAdjust="spacing" textLength="155" x="42.5" y="179.4795">receiveDamage(): void</text><ellipse cx="33.5" cy="192.4297" fill="#84BE84" rx="3" ry="3" style="stroke:#038048;stroke-width:1.0;"/><text fill="#000000" font-family="sans-serif" font-size="14" lengthAdjust="spacing" textLength="141" x="42.5" y="195.7764">startFight(): Boolean</text><ellipse cx="33.5" cy="208.7266" fill="#84BE84" rx="3" ry="3" style="stroke:#038048;stroke-width:1.0;"/><text fill="#000000" font-family="sans-serif" font-size="14" lengthAdjust="spacing" textLength="179" x="42.5" y="212.0732">choiceUseItem(): Boolean</text></g></a><!--class interfaces.Main--><a href="Main.html" target="_top" title="Main.html" xlink:actuate="onRequest" xlink:href="Main.html" xlink:show="new" xlink:title="Main.html" xlink:type="simple"><g id="elem_interfaces.Main"><rect codeLine="14" fill="#F1F1F1" height="80.5938" id="interfaces.Main" rx="2.5" ry="2.5" style="stroke:#181818;stroke-width:0.5;" width="156" x="273" y="89.5"/><ellipse cx="330.75" cy="105.5" fill="#ADD1B2" rx="11" ry="11" style="stroke:#181818;stroke-width:1.0;"/><path d="M333.7188,111.1406 Q333.1406,111.4375 332.5,111.5781 Q331.8594,111.7344 331.1563,111.7344 Q328.6563,111.7344 327.3281,110.0938 Q326.0156,108.4375 326.0156,105.3125 Q326.0156,102.1875 327.3281,100.5313 Q328.6563,98.875 331.1563,98.875 Q331.8594,98.875 332.5,99.0313 Q333.1563,99.1875 333.7188,99.4844 L333.7188,102.2031 Q333.0938,101.625 332.5,101.3594 Q331.9063,101.0781 331.2813,101.0781 Q329.9375,101.0781 329.25,102.1563 Q328.5625,103.2188 328.5625,105.3125 Q328.5625,107.4063 329.25,108.4844 Q329.9375,109.5469 331.2813,109.5469 Q331.9063,109.5469 332.5,109.2813 Q333.0938,109 333.7188,108.4219 L333.7188,111.1406 Z " fill="#000000"/><text fill="#000000" font-family="sans-serif" font-size="14" lengthAdjust="spacing" textLength="32" x="351.25" y="110.3467">Main</text><line style="stroke:#181818;stroke-width:0.5;" x1="274" x2="428" y1="121.5" y2="121.5"/><ellipse cx="284" cy="135.1484" fill="none" rx="3" ry="3" style="stroke:#038048;stroke-width:1.0;"/><text fill="#000000" font-family="sans-serif" font-size="14" lengthAdjust="spacing" text-decoration="underline" textLength="103" x="293" y="138.4951">PLAYER: Player</text><line style="stroke:#181818;stroke-width:0.5;" x1="274" x2="428" y1="145.7969" y2="145.7969"/><ellipse cx="284" cy="159.4453" fill="#84BE84" rx="3" ry="3" style="stroke:#038048;stroke-width:1.0;"/><text fill="#000000" font-family="sans-serif" font-size="14" lengthAdjust="spacing" text-decoration="underline" textLength="130" x="293" y="162.792">main(String[]): void</text></g></a><!--class interfaces.ZombieGame--><a href="ZombieGame.html" target="_top" title="ZombieGame.html" xlink:actuate="onRequest" xlink:href="ZombieGame.html" xlink:show="new" xlink:title="ZombieGame.html" xlink:type="simple"><g id="elem_interfaces.ZombieGame"><rect codeLine="19" fill="#F1F1F1" height="80.5938" id="interfaces.ZombieGame" rx="2.5" ry="2.5" style="stroke:#181818;stroke-width:0.5;" width="129" x="464.5" y="89.5"/><ellipse cx="480.85" cy="105.5" fill="#ADD1B2" rx="11" ry="11" style="stroke:#181818;stroke-width:1.0;"/><path d="M483.8188,111.1406 Q483.2406,111.4375 482.6,111.5781 Q481.9594,111.7344 481.2563,111.7344 Q478.7563,111.7344 477.4281,110.0938 Q476.1156,108.4375 476.1156,105.3125 Q476.1156,102.1875 477.4281,100.5313 Q478.7563,98.875 481.2563,98.875 Q481.9594,98.875 482.6,99.0313 Q483.2563,99.1875 483.8188,99.4844 L483.8188,102.2031 Q483.1938,101.625 482.6,101.3594 Q482.0063,101.0781 481.3813,101.0781 Q480.0375,101.0781 479.35,102.1563 Q478.6625,103.2188 478.6625,105.3125 Q478.6625,107.4063 479.35,108.4844 Q480.0375,109.5469 481.3813,109.5469 Q482.0063,109.5469 482.6,109.2813 Q483.1938,109 483.8188,108.4219 L483.8188,111.1406 Z " fill="#000000"/><text fill="#000000" font-family="sans-serif" font-size="14" lengthAdjust="spacing" textLength="94" x="495.15" y="110.3467">ZombieGame</text><line style="stroke:#181818;stroke-width:0.5;" x1="465.5" x2="592.5" y1="121.5" y2="121.5"/><ellipse cx="475.5" cy="135.1484" fill="none" rx="3" ry="3" style="stroke:#038048;stroke-width:1.0;"/><text fill="#000000" font-family="sans-serif" font-size="14" lengthAdjust="spacing" text-decoration="underline" textLength="103" x="484.5" y="138.4951">PLAYER: Player</text><line style="stroke:#181818;stroke-width:0.5;" x1="465.5" x2="592.5" y1="145.7969" y2="145.7969"/><ellipse cx="475.5" cy="159.4453" fill="#84BE84" rx="3" ry="3" style="stroke:#038048;stroke-width:1.0;"/><text fill="#000000" font-family="sans-serif" font-size="14" lengthAdjust="spacing" textLength="78" x="484.5" y="162.792">start(): void</text></g></a><!--class interfaces.Color--><a href="Color.html" target="_top" title="Color.html" xlink:actuate="onRequest" xlink:href="Color.html" xlink:show="new" xlink:title="Color.html" xlink:type="simple"><g id="elem_interfaces.Color"><rect codeLine="24" fill="#F1F1F1" height="308.75" id="interfaces.Color" rx="2.5" ry="2.5" style="stroke:#181818;stroke-width:0.5;" width="177" x="21.5" y="279"/><ellipse cx="87.75" cy="295" fill="#ADD1B2" rx="11" ry="11" style="stroke:#181818;stroke-width:1.0;"/><path d="M90.7188,300.6406 Q90.1406,300.9375 89.5,301.0781 Q88.8594,301.2344 88.1563,301.2344 Q85.6563,301.2344 84.3281,299.5938 Q83.0156,297.9375 83.0156,294.8125 Q83.0156,291.6875 84.3281,290.0313 Q85.6563,288.375 88.1563,288.375 Q88.8594,288.375 89.5,288.5313 Q90.1563,288.6875 90.7188,288.9844 L90.7188,291.7031 Q90.0938,291.125 89.5,290.8594 Q88.9063,290.5781 88.2813,290.5781 Q86.9375,290.5781 86.25,291.6563 Q85.5625,292.7188 85.5625,294.8125 Q85.5625,296.9063 86.25,297.9844 Q86.9375,299.0469 88.2813,299.0469 Q88.9063,299.0469 89.5,298.7813 Q90.0938,298.5 90.7188,297.9219 L90.7188,300.6406 Z " fill="#000000"/><text fill="#000000" font-family="sans-serif" font-size="14" lengthAdjust="spacing" textLength="36" x="108.25" y="299.8467">Color</text><line style="stroke:#181818;stroke-width:0.5;" x1="22.5" x2="197.5" y1="311" y2="311"/><ellipse cx="32.5" cy="324.6484" fill="none" rx="3" ry="3" style="stroke:#038048;stroke-width:1.0;"/><text fill="#000000" font-family="sans-serif" font-size="14" lengthAdjust="spacing" text-decoration="underline" textLength="95" x="41.5" y="327.9951">RESET: String</text><ellipse cx="32.5" cy="340.9453" fill="none" rx="3" ry="3" style="stroke:#038048;stroke-width:1.0;"/><text fill="#000000" font-family="sans-serif" font-size="14" lengthAdjust="spacing" text-decoration="underline" textLength="94" x="41.5" y="344.292">BLACK: String</text><ellipse cx="32.5" cy="357.2422" fill="none" rx="3" ry="3" style="stroke:#038048;stroke-width:1.0;"/><text fill="#000000" font-family="sans-serif" font-size="14" lengthAdjust="spacing" text-decoration="underline" textLength="79" x="41.5" y="360.5889">RED: String</text><ellipse cx="32.5" cy="373.5391" fill="none" rx="3" ry="3" style="stroke:#038048;stroke-width:1.0;"/><text fill="#000000" font-family="sans-serif" font-size="14" lengthAdjust="spacing" text-decoration="underline" textLength="98" x="41.5" y="376.8857">GREEN: String</text><ellipse cx="32.5" cy="389.8359" fill="none" rx="3" ry="3" style="stroke:#038048;stroke-width:1.0;"/><text fill="#000000" font-family="sans-serif" font-size="14" lengthAdjust="spacing" text-decoration="underline" textLength="105" x="41.5" y="393.1826">YELLOW: String</text><ellipse cx="32.5" cy="406.1328" fill="none" rx="3" ry="3" style="stroke:#038048;stroke-width:1.0;"/><text fill="#000000" font-family="sans-serif" font-size="14" lengthAdjust="spacing" text-decoration="underline" textLength="85" x="41.5" y="409.4795">BLUE: String</text><ellipse cx="32.5" cy="422.4297" fill="none" rx="3" ry="3" style="stroke:#038048;stroke-width:1.0;"/><text fill="#000000" font-family="sans-serif" font-size="14" lengthAdjust="spacing" text-decoration="underline" textLength="103" x="41.5" y="425.7764">PURPLE: String</text><ellipse cx="32.5" cy="438.7266" fill="none" rx="3" ry="3" style="stroke:#038048;stroke-width:1.0;"/><text fill="#000000" font-family="sans-serif" font-size="14" lengthAdjust="spacing" text-decoration="underline" textLength="87" x="41.5" y="442.0732">CYAN: String</text><ellipse cx="32.5" cy="455.0234" fill="none" rx="3" ry="3" style="stroke:#038048;stroke-width:1.0;"/><text fill="#000000" font-family="sans-serif" font-size="14" lengthAdjust="spacing" text-decoration="underline" textLength="133" x="41.5" y="458.3701">CYAN_BOLD: String</text><ellipse cx="32.5" cy="471.3203" fill="none" rx="3" ry="3" style="stroke:#038048;stroke-width:1.0;"/><text fill="#000000" font-family="sans-serif" font-size="14" lengthAdjust="spacing" text-decoration="underline" textLength="93" x="41.5" y="474.667">WHITE: String</text><ellipse cx="32.5" cy="487.6172" fill="none" rx="3" ry="3" style="stroke:#038048;stroke-width:1.0;"/><text fill="#000000" font-family="sans-serif" font-size="14" lengthAdjust="spacing" text-decoration="underline" textLength="140" x="41.5" y="490.9639">BLACK_BOLD: String</text><ellipse cx="32.5" cy="503.9141" fill="none" rx="3" ry="3" style="stroke:#038048;stroke-width:1.0;"/><text fill="#000000" font-family="sans-serif" font-size="14" lengthAdjust="spacing" text-decoration="underline" textLength="125" x="41.5" y="507.2607">RED_BOLD: String</text><ellipse cx="32.5" cy="520.2109" fill="none" rx="3" ry="3" style="stroke:#038048;stroke-width:1.0;"/><text fill="#000000" font-family="sans-serif" font-size="14" lengthAdjust="spacing" text-decoration="underline" textLength="144" x="41.5" y="523.5576">GREEN_BOLD: String</text><ellipse cx="32.5" cy="536.5078" fill="none" rx="3" ry="3" style="stroke:#038048;stroke-width:1.0;"/><text fill="#000000" font-family="sans-serif" font-size="14" lengthAdjust="spacing" text-decoration="underline" textLength="151" x="41.5" y="539.8545">YELLOW_BOLD: String</text><ellipse cx="32.5" cy="552.8047" fill="none" rx="3" ry="3" style="stroke:#038048;stroke-width:1.0;"/><text fill="#000000" font-family="sans-serif" font-size="14" lengthAdjust="spacing" text-decoration="underline" textLength="131" x="41.5" y="556.1514">BLUE_BOLD: String</text><ellipse cx="32.5" cy="569.1016" fill="none" rx="3" ry="3" style="stroke:#038048;stroke-width:1.0;"/><text fill="#000000" font-family="sans-serif" font-size="14" lengthAdjust="spacing" text-decoration="underline" textLength="149" x="41.5" y="572.4482">PURPLE_BOLD: String</text><line style="stroke:#181818;stroke-width:0.5;" x1="22.5" x2="197.5" y1="579.75" y2="579.75"/></g></a><!--class interfaces.KeyboardInstruction--><a href="KeyboardInstruction.html" target="_top" title="KeyboardInstruction.html" xlink:actuate="onRequest" xlink:href="KeyboardInstruction.html" xlink:show="new" xlink:title="KeyboardInstruction.html" xlink:type="simple"><g id="elem_interfaces.KeyboardInstruction"><rect codeLine="43" fill="#F1F1F1" height="129.4844" id="interfaces.KeyboardInstruction" rx="2.5" ry="2.5" style="stroke:#181818;stroke-width:0.5;" width="191" x="233.5" y="369"/><ellipse cx="257.95" cy="385" fill="#ADD1B2" rx="11" ry="11" style="stroke:#181818;stroke-width:1.0;"/><path d="M260.9188,390.6406 Q260.3406,390.9375 259.7,391.0781 Q259.0594,391.2344 258.3563,391.2344 Q255.8563,391.2344 254.5281,389.5938 Q253.2156,387.9375 253.2156,384.8125 Q253.2156,381.6875 254.5281,380.0313 Q255.8563,378.375 258.3563,378.375 Q259.0594,378.375 259.7,378.5313 Q260.3563,378.6875 260.9188,378.9844 L260.9188,381.7031 Q260.2938,381.125 259.7,380.8594 Q259.1063,380.5781 258.4813,380.5781 Q257.1375,380.5781 256.45,381.6563 Q255.7625,382.7188 255.7625,384.8125 Q255.7625,386.9063 256.45,387.9844 Q257.1375,389.0469 258.4813,389.0469 Q259.1063,389.0469 259.7,388.7813 Q260.2938,388.5 260.9188,387.9219 L260.9188,390.6406 Z " fill="#000000"/><text fill="#000000" font-family="sans-serif" font-size="14" lengthAdjust="spacing" textLength="138" x="274.05" y="389.8467">KeyboardInstruction</text><line style="stroke:#181818;stroke-width:0.5;" x1="234.5" x2="423.5" y1="401" y2="401"/><rect fill="none" height="6" style="stroke:#C82930;stroke-width:1.0;" width="6" x="241.5" y="411.6484"/><text fill="#000000" font-family="sans-serif" font-size="14" lengthAdjust="spacing" text-decoration="underline" textLength="82" x="253.5" y="417.9951">sc: Scanner</text><line style="stroke:#181818;stroke-width:0.5;" x1="234.5" x2="423.5" y1="425.2969" y2="425.2969"/><ellipse cx="244.5" cy="438.9453" fill="#84BE84" rx="3" ry="3" style="stroke:#038048;stroke-width:1.0;"/><text fill="#000000" font-family="sans-serif" font-size="14" lengthAdjust="spacing" text-decoration="underline" textLength="149" x="253.5" y="442.292">fermerScanner(): void</text><ellipse cx="244.5" cy="455.2422" fill="#84BE84" rx="3" ry="3" style="stroke:#038048;stroke-width:1.0;"/><text fill="#000000" font-family="sans-serif" font-size="14" lengthAdjust="spacing" text-decoration="underline" textLength="162" x="253.5" y="458.5889">saisieClavierStr(): String</text><ellipse cx="244.5" cy="471.5391" fill="#84BE84" rx="3" ry="3" style="stroke:#038048;stroke-width:1.0;"/><text fill="#000000" font-family="sans-serif" font-size="14" lengthAdjust="spacing" text-decoration="underline" textLength="165" x="253.5" y="474.8857">saisieClavierChar(): char</text><ellipse cx="244.5" cy="487.8359" fill="#84BE84" rx="3" ry="3" style="stroke:#038048;stroke-width:1.0;"/><text fill="#000000" font-family="sans-serif" font-size="14" lengthAdjust="spacing" text-decoration="underline" textLength="137" x="253.5" y="491.1826">saisieClavierInt(): int</text></g></a><!--class interfaces.Menu--><a href="Menu.html" target="_top" title="Menu.html" xlink:actuate="onRequest" xlink:href="Menu.html" xlink:show="new" xlink:title="Menu.html" xlink:type="simple"><g id="elem_interfaces.Menu"><rect codeLine="51" fill="#F1F1F1" height="308.75" id="interfaces.Menu" rx="2.5" ry="2.5" style="stroke:#181818;stroke-width:0.5;" width="201" x="459.5" y="279"/><ellipse cx="536.25" cy="295" fill="#ADD1B2" rx="11" ry="11" style="stroke:#181818;stroke-width:1.0;"/><path d="M539.2188,300.6406 Q538.6406,300.9375 538,301.0781 Q537.3594,301.2344 536.6563,301.2344 Q534.1563,301.2344 532.8281,299.5938 Q531.5156,297.9375 531.5156,294.8125 Q531.5156,291.6875 532.8281,290.0313 Q534.1563,288.375 536.6563,288.375 Q537.3594,288.375 538,288.5313 Q538.6563,288.6875 539.2188,288.9844 L539.2188,291.7031 Q538.5938,291.125 538,290.8594 Q537.4063,290.5781 536.7813,290.5781 Q535.4375,290.5781 534.75,291.6563 Q534.0625,292.7188 534.0625,294.8125 Q534.0625,296.9063 534.75,297.9844 Q535.4375,299.0469 536.7813,299.0469 Q537.4063,299.0469 538,298.7813 Q538.5938,298.5 539.2188,297.9219 L539.2188,300.6406 Z " fill="#000000"/><text fill="#000000" font-family="sans-serif" font-size="14" lengthAdjust="spacing" textLength="39" x="556.75" y="299.8467">Menu</text><line style="stroke:#181818;stroke-width:0.5;" x1="460.5" x2="659.5" y1="311" y2="311"/><ellipse cx="470.5" cy="324.6484" fill="none" rx="3" ry="3" style="stroke:#038048;stroke-width:1.0;"/><text fill="#000000" font-family="sans-serif" font-size="14" lengthAdjust="spacing" text-decoration="underline" textLength="82" x="479.5" y="327.9951">sc: Scanner</text><line style="stroke:#181818;stroke-width:0.5;" x1="460.5" x2="659.5" y1="335.2969" y2="335.2969"/><ellipse cx="470.5" cy="348.9453" fill="#84BE84" rx="3" ry="3" style="stroke:#038048;stroke-width:1.0;"/><text fill="#000000" font-family="sans-serif" font-size="14" lengthAdjust="spacing" text-decoration="underline" textLength="102" x="479.5" y="352.292">cleanup(): void</text><ellipse cx="470.5" cy="365.2422" fill="#84BE84" rx="3" ry="3" style="stroke:#038048;stroke-width:1.0;"/><text fill="#000000" font-family="sans-serif" font-size="14" lengthAdjust="spacing" text-decoration="underline" textLength="159" x="479.5" y="368.5889">zombieDisplay(): String</text><ellipse cx="470.5" cy="381.5391" fill="#84BE84" rx="3" ry="3" style="stroke:#038048;stroke-width:1.0;"/><text fill="#000000" font-family="sans-serif" font-size="14" lengthAdjust="spacing" text-decoration="underline" textLength="126" x="479.5" y="384.8857">ratDisplay(): String</text><ellipse cx="470.5" cy="397.8359" fill="#84BE84" rx="3" ry="3" style="stroke:#038048;stroke-width:1.0;"/><text fill="#000000" font-family="sans-serif" font-size="14" lengthAdjust="spacing" text-decoration="underline" textLength="154" x="479.5" y="401.1826">caffardDisplay(): String</text><ellipse cx="470.5" cy="414.1328" fill="#84BE84" rx="3" ry="3" style="stroke:#038048;stroke-width:1.0;"/><text fill="#000000" font-family="sans-serif" font-size="14" lengthAdjust="spacing" text-decoration="underline" textLength="99" x="479.5" y="417.4795">menu(): String</text><ellipse cx="470.5" cy="430.4297" fill="#84BE84" rx="3" ry="3" style="stroke:#038048;stroke-width:1.0;"/><text fill="#000000" font-family="sans-serif" font-size="14" lengthAdjust="spacing" text-decoration="underline" textLength="97" x="479.5" y="433.7764">loading(): void</text><ellipse cx="470.5" cy="446.7266" fill="#84BE84" rx="3" ry="3" style="stroke:#038048;stroke-width:1.0;"/><text fill="#000000" font-family="sans-serif" font-size="14" lengthAdjust="spacing" text-decoration="underline" textLength="121" x="479.5" y="450.0732">welcome(): String</text><ellipse cx="470.5" cy="463.0234" fill="#84BE84" rx="3" ry="3" style="stroke:#038048;stroke-width:1.0;"/><text fill="#000000" font-family="sans-serif" font-size="14" lengthAdjust="spacing" text-decoration="underline" textLength="92" x="479.5" y="466.3701">atStart(): void</text><ellipse cx="470.5" cy="479.3203" fill="#84BE84" rx="3" ry="3" style="stroke:#038048;stroke-width:1.0;"/><text fill="#000000" font-family="sans-serif" font-size="14" lengthAdjust="spacing" text-decoration="underline" textLength="102" x="479.5" y="482.667">choiced(): void</text><ellipse cx="470.5" cy="495.6172" fill="#84BE84" rx="3" ry="3" style="stroke:#038048;stroke-width:1.0;"/><text fill="#000000" font-family="sans-serif" font-size="14" lengthAdjust="spacing" text-decoration="underline" textLength="175" x="479.5" y="498.9639">choiceStartAGame(): void</text><ellipse cx="470.5" cy="511.9141" fill="#84BE84" rx="3" ry="3" style="stroke:#038048;stroke-width:1.0;"/><text fill="#000000" font-family="sans-serif" font-size="14" lengthAdjust="spacing" text-decoration="underline" textLength="141" x="479.5" y="515.2607">choiceExplain(): void</text><ellipse cx="470.5" cy="528.2109" fill="#84BE84" rx="3" ry="3" style="stroke:#038048;stroke-width:1.0;"/><text fill="#000000" font-family="sans-serif" font-size="14" lengthAdjust="spacing" text-decoration="underline" textLength="142" x="479.5" y="531.5576">choiceCredits(): void</text><ellipse cx="470.5" cy="544.5078" fill="#84BE84" rx="3" ry="3" style="stroke:#038048;stroke-width:1.0;"/><text fill="#000000" font-family="sans-serif" font-size="14" lengthAdjust="spacing" text-decoration="underline" textLength="121" x="479.5" y="547.8545">choiceQuit(): void</text><ellipse cx="470.5" cy="560.8047" fill="#84BE84" rx="3" ry="3" style="stroke:#038048;stroke-width:1.0;"/><text fill="#000000" font-family="sans-serif" font-size="14" lengthAdjust="spacing" text-decoration="underline" textLength="157" x="479.5" y="564.1514">choiceDefName(): void</text><ellipse cx="470.5" cy="577.1016" fill="#84BE84" rx="3" ry="3" style="stroke:#038048;stroke-width:1.0;"/><text fill="#000000" font-family="sans-serif" font-size="14" lengthAdjust="spacing" text-decoration="underline" textLength="160" x="479.5" y="580.4482">choiceSeeScore(): void</text></g></a><text fill="#888888" font-family="sans-serif" font-size="10" lengthAdjust="spacing" textLength="186" x="242" y="619.2822">UMLDoclet 2.1.0, PlantUML 1.2022.14</text><!--SRC=[fPRVRzem4CVV-rVuPHAeBThso1i4jqDDAKj05KEeSfqBiPJOo3PihEh_tak2n483jhIy79YFxyStlZE4429P0MR3E10XBUWKFndoTdL53W_FcJ7aJgmpIvRBolOoM-Ih5LBad-TwqoVJdEr1DvUXJwYKK8Z6yct6TZ3J-vcYXhCDGaEbSc2okRcArwdTtXpyT9k8a6akk1snWgsXq-sJdH994z70GUpW4c8iqxQErZsJ2y-Ku30tCBPGj57lfwezCY5HjDAqQ_Q6OQtWx-Hw6WuMD6fLy0WLwAWJMotaUhawBUDJz5-gU1LmZ-yNSpX- -OzCQfKwpiY1ofN6e9LrnOjeJ6TzKfTrXXc6W-31mKHqv23k8qed3cP1m_3fsPdEd3gGwJoQXYueM0mc7iZBy2bqrVRyOpoZFYhwE4CfVR1AJn-m5jM7B9NruMfvsybFn_41zg-AwMGiZTLRReKgkx9brN5KRmt7O9pX53hNeIde0lI1QPqqHzOmOGG4ETi9t68h_6BHZGr1ngeT7AqFFvPLu-AGlp2lG6xBUON6rRLkANWv6xSRXmX_gxaq4cQ3uyQfW6RM5-KiJV7j-k85rko4SiKI_DLHqc_8kIh0wOtPk7MSdjHHtJg95rNv6vH3tWkdVr0Ql55ys4138gpnOdzkXLzL8qWdlid6035N6ixTFWV3eVmNGrAbIZD_34SA3w8bttlVUbzloajDMbmbNtQW3RPyf_i1]--></g></svg>