<?xml version="1.0" encoding="UTF-8" standalone="no"?><svg xmlns="http://www.w3.org/2000/svg" xmlns:xlink="http://www.w3.org/1999/xlink" contentStyleType="text/css" height="1319px" preserveAspectRatio="none" style="width:448px;height:1319px;background:#FFFFFF;" version="1.1" viewBox="0 0 448 1319" width="448px" zoomAndPan="magnify"><defs/><g><!--cluster map--><g id="cluster_map"><path d="M8.5,6 L42.5,6 A3.75,3.75 0 0 1 45,8.5 L52,28.2969 L438.5,28.2969 A2.5,2.5 0 0 1 441,30.7969 L441,1291.5 A2.5,2.5 0 0 1 438.5,1294 L8.5,1294 A2.5,2.5 0 0 1 6,1291.5 L6,8.5 A2.5,2.5 0 0 1 8.5,6 " fill="none" style="stroke:#000000;stroke-width:1.5;"/><line style="stroke:#000000;stroke-width:1.5;" x1="6" x2="52" y1="28.2969" y2="28.2969"/><text fill="#000000" font-family="sans-serif" font-size="14" font-weight="bold" lengthAdjust="spacing" textLength="33" x="10" y="20.9951">map</text></g><!--class map.Exit--><a href="Exit.html" target="_top" title="Exit.html" xlink:actuate="onRequest" xlink:href="Exit.html" xlink:show="new" xlink:title="Exit.html" xlink:type="simple"><g id="elem_map.Exit"><rect codeLine="3" fill="#F1F1F1" height="64.2969" id="map.Exit" rx="2.5" ry="2.5" style="stroke:#181818;stroke-width:0.5;" width="102" x="22" y="1089"/><ellipse cx="57.7" cy="1105" fill="#ADD1B2" rx="11" ry="11" style="stroke:#181818;stroke-width:1.0;"/><path d="M60.6688,1110.6406 Q60.0906,1110.9375 59.45,1111.0781 Q58.8094,1111.2344 58.1063,1111.2344 Q55.6063,1111.2344 54.2781,1109.5938 Q52.9656,1107.9375 52.9656,1104.8125 Q52.9656,1101.6875 54.2781,1100.0313 Q55.6063,1098.375 58.1063,1098.375 Q58.8094,1098.375 59.45,1098.5313 Q60.1063,1098.6875 60.6688,1098.9844 L60.6688,1101.7031 Q60.0438,1101.125 59.45,1100.8594 Q58.8563,1100.5781 58.2313,1100.5781 Q56.8875,1100.5781 56.2,1101.6563 Q55.5125,1102.7188 55.5125,1104.8125 Q55.5125,1106.9063 56.2,1107.9844 Q56.8875,1109.0469 58.2313,1109.0469 Q58.8563,1109.0469 59.45,1108.7813 Q60.0438,1108.5 60.6688,1107.9219 L60.6688,1110.6406 Z " fill="#000000"/><text fill="#000000" font-family="sans-serif" font-size="14" lengthAdjust="spacing" textLength="24" x="76.3" y="1109.8467">Exit</text><line style="stroke:#181818;stroke-width:0.5;" x1="23" x2="123" y1="1121" y2="1121"/><line style="stroke:#181818;stroke-width:0.5;" x1="23" x2="123" y1="1129" y2="1129"/><ellipse cx="33" cy="1142.6484" fill="#84BE84" rx="3" ry="3" style="stroke:#038048;stroke-width:1.0;"/><text fill="#000000" font-family="sans-serif" font-size="14" lengthAdjust="spacing" textLength="76" x="42" y="1145.9951">Exit(int, int)</text></g></a><!--class map.Room--><a href="Room.html" target="_top" title="Room.html" xlink:actuate="onRequest" xlink:href="Room.html" xlink:show="new" xlink:title="Room.html" xlink:type="simple"><g id="elem_map.Room"><rect codeLine="7" fill="#F1F1F1" height="520.6094" id="map.Room" rx="2.5" ry="2.5" style="stroke:#181818;stroke-width:0.5;" width="337" x="53.5" y="41"/><ellipse cx="197.25" cy="57" fill="#ADD1B2" rx="11" ry="11" style="stroke:#181818;stroke-width:1.0;"/><path d="M200.2188,62.6406 Q199.6406,62.9375 199,63.0781 Q198.3594,63.2344 197.6563,63.2344 Q195.1563,63.2344 193.8281,61.5938 Q192.5156,59.9375 192.5156,56.8125 Q192.5156,53.6875 193.8281,52.0313 Q195.1563,50.375 197.6563,50.375 Q198.3594,50.375 199,50.5313 Q199.6563,50.6875 200.2188,50.9844 L200.2188,53.7031 Q199.5938,53.125 199,52.8594 Q198.4063,52.5781 197.7813,52.5781 Q196.4375,52.5781 195.75,53.6563 Q195.0625,54.7188 195.0625,56.8125 Q195.0625,58.9063 195.75,59.9844 Q196.4375,61.0469 197.7813,61.0469 Q198.4063,61.0469 199,60.7813 Q199.5938,60.5 200.2188,59.9219 L200.2188,62.6406 Z " fill="#000000"/><text fill="#000000" font-family="sans-serif" font-size="14" lengthAdjust="spacing" textLength="41" x="217.75" y="61.8467">Room</text><line style="stroke:#181818;stroke-width:0.5;" x1="54.5" x2="389.5" y1="73" y2="73"/><ellipse cx="64.5" cy="86.6484" fill="none" rx="3" ry="3" style="stroke:#038048;stroke-width:1.0;"/><text fill="#000000" font-family="sans-serif" font-size="14" lengthAdjust="spacing" text-decoration="underline" textLength="222" x="73.5" y="89.9951">coords: ArrayList&lt;Coordinates&gt;</text><rect fill="none" height="6" style="stroke:#C82930;stroke-width:1.0;" width="6" x="61.5" y="99.9453"/><text fill="#000000" font-family="sans-serif" font-size="14" lengthAdjust="spacing" text-decoration="underline" textLength="82" x="73.5" y="106.292">sc: Scanner</text><ellipse cx="64.5" cy="119.2422" fill="none" rx="3" ry="3" style="stroke:#038048;stroke-width:1.0;"/><text fill="#000000" font-family="sans-serif" font-size="14" lengthAdjust="spacing" text-decoration="underline" textLength="91" x="73.5" y="122.5889">levelType: int</text><rect fill="none" height="6" style="stroke:#C82930;stroke-width:1.0;" width="6" x="61.5" y="132.5391"/><text fill="#000000" font-family="sans-serif" font-size="14" lengthAdjust="spacing" textLength="40" x="73.5" y="138.8857">xy: int</text><rect fill="none" height="6" style="stroke:#C82930;stroke-width:1.0;" width="6" x="61.5" y="148.8359"/><text fill="#000000" font-family="sans-serif" font-size="14" lengthAdjust="spacing" textLength="91" x="73.5" y="155.1826">player: Player</text><rect fill="none" height="6" style="stroke:#C82930;stroke-width:1.0;" width="6" x="61.5" y="165.1328"/><text fill="#000000" font-family="sans-serif" font-size="14" lengthAdjust="spacing" text-decoration="underline" textLength="134" x="73.5" y="171.4795">beginning: boolean</text><line style="stroke:#181818;stroke-width:0.5;" x1="54.5" x2="389.5" y1="178.7813" y2="178.7813"/><ellipse cx="64.5" cy="192.4297" fill="#84BE84" rx="3" ry="3" style="stroke:#038048;stroke-width:1.0;"/><text fill="#000000" font-family="sans-serif" font-size="14" lengthAdjust="spacing" textLength="93" x="73.5" y="195.7764">Room(int, int)</text><ellipse cx="64.5" cy="208.7266" fill="#84BE84" rx="3" ry="3" style="stroke:#038048;stroke-width:1.0;"/><text fill="#000000" font-family="sans-serif" font-size="14" lengthAdjust="spacing" textLength="68" x="73.5" y="212.0732">Room(int)</text><ellipse cx="64.5" cy="225.0234" fill="#84BE84" rx="3" ry="3" style="stroke:#038048;stroke-width:1.0;"/><text fill="#000000" font-family="sans-serif" font-size="14" lengthAdjust="spacing" textLength="51" x="73.5" y="228.3701">Room()</text><ellipse cx="64.5" cy="241.3203" fill="#84BE84" rx="3" ry="3" style="stroke:#038048;stroke-width:1.0;"/><text fill="#000000" font-family="sans-serif" font-size="14" lengthAdjust="spacing" textLength="124" x="73.5" y="244.667">getPlayer(): Player</text><ellipse cx="64.5" cy="257.6172" fill="#84BE84" rx="3" ry="3" style="stroke:#038048;stroke-width:1.0;"/><text fill="#000000" font-family="sans-serif" font-size="14" lengthAdjust="spacing" textLength="142" x="73.5" y="260.9639">toStringMap(): String</text><ellipse cx="64.5" cy="273.9141" fill="#84BE84" rx="3" ry="3" style="stroke:#038048;stroke-width:1.0;"/><text fill="#000000" font-family="sans-serif" font-size="14" lengthAdjust="spacing" textLength="206" x="73.5" y="277.2607">generateMap(int, int, int): void</text><rect fill="#F24D5C" height="6" style="stroke:#C82930;stroke-width:1.0;" width="6" x="61.5" y="287.2109"/><text fill="#000000" font-family="sans-serif" font-size="14" lengthAdjust="spacing" textLength="168" x="73.5" y="293.5576">generateBackExit(): void</text><rect fill="#F24D5C" height="6" style="stroke:#C82930;stroke-width:1.0;" width="6" x="61.5" y="303.5078"/><text fill="#000000" font-family="sans-serif" font-size="14" lengthAdjust="spacing" textLength="235" x="73.5" y="309.8545">getMapSpawnRate(): EnnemiType</text><rect fill="#F24D5C" height="6" style="stroke:#C82930;stroke-width:1.0;" width="6" x="61.5" y="319.8047"/><text fill="#000000" font-family="sans-serif" font-size="14" lengthAdjust="spacing" textLength="187" x="73.5" y="326.1514">generateEnemies(int): void</text><rect fill="#F24D5C" height="6" style="stroke:#C82930;stroke-width:1.0;" width="6" x="61.5" y="336.1016"/><text fill="#000000" font-family="sans-serif" font-size="14" lengthAdjust="spacing" textLength="162" x="73.5" y="342.4482">generateWalls(int): void</text><rect fill="#F24D5C" height="6" style="stroke:#C82930;stroke-width:1.0;" width="6" x="61.5" y="352.3984"/><text fill="#000000" font-family="sans-serif" font-size="14" lengthAdjust="spacing" textLength="148" x="73.5" y="358.7451">generateUtil(int): void</text><rect fill="#F24D5C" height="6" style="stroke:#C82930;stroke-width:1.0;" width="6" x="61.5" y="368.6953"/><text fill="#000000" font-family="sans-serif" font-size="14" lengthAdjust="spacing" textLength="142" x="73.5" y="375.042">generateExits(): void</text><rect fill="#F24D5C" height="6" style="stroke:#C82930;stroke-width:1.0;" width="6" x="61.5" y="384.9922"/><text fill="#000000" font-family="sans-serif" font-size="14" lengthAdjust="spacing" textLength="257" x="73.5" y="391.3389">generateStaircase(Coordinates): void</text><rect fill="#F24D5C" height="6" style="stroke:#C82930;stroke-width:1.0;" width="6" x="61.5" y="401.2891"/><text fill="#000000" font-family="sans-serif" font-size="14" lengthAdjust="spacing" textLength="264" x="73.5" y="407.6357">generateAirGap(Coordinates, int): void</text><rect fill="#F24D5C" height="6" style="stroke:#C82930;stroke-width:1.0;" width="6" x="61.5" y="417.5859"/><text fill="#000000" font-family="sans-serif" font-size="14" lengthAdjust="spacing" textLength="70" x="73.5" y="423.9326">gvbb(): int</text><rect fill="#F24D5C" height="6" style="stroke:#C82930;stroke-width:1.0;" width="6" x="61.5" y="433.8828"/><text fill="#000000" font-family="sans-serif" font-size="14" lengthAdjust="spacing" textLength="126" x="73.5" y="440.2295">moveRoom(): void</text><rect fill="#F24D5C" height="6" style="stroke:#C82930;stroke-width:1.0;" width="6" x="61.5" y="450.1797"/><text fill="#000000" font-family="sans-serif" font-size="14" lengthAdjust="spacing" textLength="119" x="73.5" y="456.5264">moveBack(): void</text><ellipse cx="64.5" cy="469.4766" fill="#84BE84" rx="3" ry="3" style="stroke:#038048;stroke-width:1.0;"/><text fill="#000000" font-family="sans-serif" font-size="14" lengthAdjust="spacing" textLength="88" x="73.5" y="472.8232">getSize(): int</text><rect fill="#F24D5C" height="6" style="stroke:#C82930;stroke-width:1.0;" width="6" x="61.5" y="482.7734"/><text fill="#000000" font-family="sans-serif" font-size="14" lengthAdjust="spacing" textLength="311" x="73.5" y="489.1201">checkElementValidity(Element, Info): boolean</text><ellipse cx="64.5" cy="502.0703" fill="#84BE84" rx="3" ry="3" style="stroke:#038048;stroke-width:1.0;"/><text fill="#000000" font-family="sans-serif" font-size="14" lengthAdjust="spacing" textLength="171" x="73.5" y="505.417">resetToNewStage(): void</text><ellipse cx="64.5" cy="518.3672" fill="#84BE84" rx="3" ry="3" style="stroke:#038048;stroke-width:1.0;"/><text fill="#000000" font-family="sans-serif" font-size="14" lengthAdjust="spacing" textLength="158" x="73.5" y="521.7139">actionPlayer(): boolean</text><ellipse cx="64.5" cy="534.6641" fill="#84BE84" rx="3" ry="3" style="stroke:#038048;stroke-width:1.0;"/><text fill="#000000" font-family="sans-serif" font-size="14" lengthAdjust="spacing" textLength="185" x="73.5" y="538.0107">refreshEnemytyping(): void</text><ellipse cx="64.5" cy="550.9609" fill="#84BE84" rx="3" ry="3" style="stroke:#038048;stroke-width:1.0;"/><text fill="#000000" font-family="sans-serif" font-size="14" lengthAdjust="spacing" textLength="145" x="73.5" y="554.3076">moveEnemies(): void</text></g></a><!--class map.Border--><a href="Border.html" target="_top" title="Border.html" xlink:actuate="onRequest" xlink:href="Border.html" xlink:show="new" xlink:title="Border.html" xlink:type="simple"><g id="elem_map.Border"><rect codeLine="39" fill="#F1F1F1" height="64.2969" id="map.Border" rx="2.5" ry="2.5" style="stroke:#181818;stroke-width:0.5;" width="125" x="159.5" y="1089"/><ellipse cx="195.2" cy="1105" fill="#ADD1B2" rx="11" ry="11" style="stroke:#181818;stroke-width:1.0;"/><path d="M198.1688,1110.6406 Q197.5906,1110.9375 196.95,1111.0781 Q196.3094,1111.2344 195.6063,1111.2344 Q193.1063,1111.2344 191.7781,1109.5938 Q190.4656,1107.9375 190.4656,1104.8125 Q190.4656,1101.6875 191.7781,1100.0313 Q193.1063,1098.375 195.6063,1098.375 Q196.3094,1098.375 196.95,1098.5313 Q197.6063,1098.6875 198.1688,1098.9844 L198.1688,1101.7031 Q197.5438,1101.125 196.95,1100.8594 Q196.3563,1100.5781 195.7313,1100.5781 Q194.3875,1100.5781 193.7,1101.6563 Q193.0125,1102.7188 193.0125,1104.8125 Q193.0125,1106.9063 193.7,1107.9844 Q194.3875,1109.0469 195.7313,1109.0469 Q196.3563,1109.0469 196.95,1108.7813 Q197.5438,1108.5 198.1688,1107.9219 L198.1688,1110.6406 Z " fill="#000000"/><text fill="#000000" font-family="sans-serif" font-size="14" lengthAdjust="spacing" textLength="47" x="213.8" y="1109.8467">Border</text><line style="stroke:#181818;stroke-width:0.5;" x1="160.5" x2="283.5" y1="1121" y2="1121"/><line style="stroke:#181818;stroke-width:0.5;" x1="160.5" x2="283.5" y1="1129" y2="1129"/><ellipse cx="170.5" cy="1142.6484" fill="#84BE84" rx="3" ry="3" style="stroke:#038048;stroke-width:1.0;"/><text fill="#000000" font-family="sans-serif" font-size="14" lengthAdjust="spacing" textLength="99" x="179.5" y="1145.9951">Border(int, int)</text></g></a><!--class map.Staircase--><a href="Staircase.html" target="_top" title="Staircase.html" xlink:actuate="onRequest" xlink:href="Staircase.html" xlink:show="new" xlink:title="Staircase.html" xlink:type="simple"><g id="elem_map.Staircase"><rect codeLine="43" fill="#F1F1F1" height="64.2969" id="map.Staircase" rx="2.5" ry="2.5" style="stroke:#181818;stroke-width:0.5;" width="141" x="22.5" y="1214"/><ellipse cx="58.2" cy="1230" fill="#ADD1B2" rx="11" ry="11" style="stroke:#181818;stroke-width:1.0;"/><path d="M61.1688,1235.6406 Q60.5906,1235.9375 59.95,1236.0781 Q59.3094,1236.2344 58.6063,1236.2344 Q56.1063,1236.2344 54.7781,1234.5938 Q53.4656,1232.9375 53.4656,1229.8125 Q53.4656,1226.6875 54.7781,1225.0313 Q56.1063,1223.375 58.6063,1223.375 Q59.3094,1223.375 59.95,1223.5313 Q60.6063,1223.6875 61.1688,1223.9844 L61.1688,1226.7031 Q60.5438,1226.125 59.95,1225.8594 Q59.3563,1225.5781 58.7313,1225.5781 Q57.3875,1225.5781 56.7,1226.6563 Q56.0125,1227.7188 56.0125,1229.8125 Q56.0125,1231.9063 56.7,1232.9844 Q57.3875,1234.0469 58.7313,1234.0469 Q59.3563,1234.0469 59.95,1233.7813 Q60.5438,1233.5 61.1688,1232.9219 L61.1688,1235.6406 Z " fill="#000000"/><text fill="#000000" font-family="sans-serif" font-size="14" lengthAdjust="spacing" textLength="63" x="76.8" y="1234.8467">Staircase</text><line style="stroke:#181818;stroke-width:0.5;" x1="23.5" x2="162.5" y1="1246" y2="1246"/><line style="stroke:#181818;stroke-width:0.5;" x1="23.5" x2="162.5" y1="1254" y2="1254"/><polygon fill="#4177AF" points="33.5,1263.6484,29.5,1269.6484,37.5,1269.6484" style="stroke:#1963A0;stroke-width:1.0;"/><text fill="#000000" font-family="sans-serif" font-size="14" lengthAdjust="spacing" textLength="115" x="42.5" y="1270.9951">Staircase(int, int)</text></g></a><!--class map.Element--><a href="Element.html" target="_top" title="Element.html" xlink:actuate="onRequest" xlink:href="Element.html" xlink:show="new" xlink:title="Element.html" xlink:type="simple"><g id="elem_map.Element"><rect codeLine="47" fill="#F1F1F1" height="373.9375" id="map.Element" rx="2.5" ry="2.5" style="stroke:#181818;stroke-width:0.5;" width="345" x="49.5" y="654"/><ellipse cx="189.25" cy="670" fill="#ADD1B2" rx="11" ry="11" style="stroke:#181818;stroke-width:1.0;"/><path d="M192.2188,675.6406 Q191.6406,675.9375 191,676.0781 Q190.3594,676.2344 189.6563,676.2344 Q187.1563,676.2344 185.8281,674.5938 Q184.5156,672.9375 184.5156,669.8125 Q184.5156,666.6875 185.8281,665.0313 Q187.1563,663.375 189.6563,663.375 Q190.3594,663.375 191,663.5313 Q191.6563,663.6875 192.2188,663.9844 L192.2188,666.7031 Q191.5938,666.125 191,665.8594 Q190.4063,665.5781 189.7813,665.5781 Q188.4375,665.5781 187.75,666.6563 Q187.0625,667.7188 187.0625,669.8125 Q187.0625,671.9063 187.75,672.9844 Q188.4375,674.0469 189.7813,674.0469 Q190.4063,674.0469 191,673.7813 Q191.5938,673.5 192.2188,672.9219 L192.2188,675.6406 Z " fill="#000000"/><text fill="#000000" font-family="sans-serif" font-size="14" lengthAdjust="spacing" textLength="57" x="209.75" y="674.8467">Element</text><line style="stroke:#181818;stroke-width:0.5;" x1="50.5" x2="393.5" y1="686" y2="686"/><rect fill="none" height="6" style="stroke:#C82930;stroke-width:1.0;" width="6" x="57.5" y="696.6484"/><text fill="#000000" font-family="sans-serif" font-size="14" lengthAdjust="spacing" textLength="63" x="69.5" y="702.9951">posX: int</text><rect fill="none" height="6" style="stroke:#C82930;stroke-width:1.0;" width="6" x="57.5" y="712.9453"/><text fill="#000000" font-family="sans-serif" font-size="14" lengthAdjust="spacing" textLength="61" x="69.5" y="719.292">posY: int</text><rect fill="none" height="6" style="stroke:#C82930;stroke-width:1.0;" width="6" x="57.5" y="729.2422"/><text fill="#000000" font-family="sans-serif" font-size="14" lengthAdjust="spacing" textLength="83" x="69.5" y="735.5889">color: String</text><rect fill="none" height="6" style="stroke:#C82930;stroke-width:1.0;" width="6" x="57.5" y="745.5391"/><text fill="#000000" font-family="sans-serif" font-size="14" lengthAdjust="spacing" textLength="98" x="69.5" y="751.8857">symbol: String</text><rect fill="none" height="6" style="stroke:#C82930;stroke-width:1.0;" width="6" x="57.5" y="761.8359"/><text fill="#000000" font-family="sans-serif" font-size="14" lengthAdjust="spacing" textLength="148" x="69.5" y="768.1826">infos: ArrayList&lt;Info&gt;</text><line style="stroke:#181818;stroke-width:0.5;" x1="50.5" x2="393.5" y1="775.4844" y2="775.4844"/><ellipse cx="60.5" cy="789.1328" fill="#84BE84" rx="3" ry="3" style="stroke:#038048;stroke-width:1.0;"/><text fill="#000000" font-family="sans-serif" font-size="14" lengthAdjust="spacing" textLength="319" x="69.5" y="792.4795">Element(int, int, String, String, ArrayList&lt;Info&gt;)</text><ellipse cx="60.5" cy="805.4297" fill="#84BE84" rx="3" ry="3" style="stroke:#038048;stroke-width:1.0;"/><text fill="#000000" font-family="sans-serif" font-size="14" lengthAdjust="spacing" textLength="205" x="69.5" y="808.7764">Element(int, int, String, String)</text><ellipse cx="60.5" cy="821.7266" fill="#84BE84" rx="3" ry="3" style="stroke:#038048;stroke-width:1.0;"/><text fill="#000000" font-family="sans-serif" font-size="14" lengthAdjust="spacing" textLength="136" x="69.5" y="825.0732">isInfo(Info): boolean</text><ellipse cx="60.5" cy="838.0234" fill="#84BE84" rx="3" ry="3" style="stroke:#038048;stroke-width:1.0;"/><text fill="#000000" font-family="sans-serif" font-size="14" lengthAdjust="spacing" textLength="123" x="69.5" y="841.3701">setPosX(int): void</text><ellipse cx="60.5" cy="854.3203" fill="#84BE84" rx="3" ry="3" style="stroke:#038048;stroke-width:1.0;"/><text fill="#000000" font-family="sans-serif" font-size="14" lengthAdjust="spacing" textLength="121" x="69.5" y="857.667">setPosY(int): void</text><ellipse cx="60.5" cy="870.6172" fill="#84BE84" rx="3" ry="3" style="stroke:#038048;stroke-width:1.0;"/><text fill="#000000" font-family="sans-serif" font-size="14" lengthAdjust="spacing" textLength="145" x="69.5" y="873.9639">setColor(String): void</text><ellipse cx="60.5" cy="886.9141" fill="#84BE84" rx="3" ry="3" style="stroke:#038048;stroke-width:1.0;"/><text fill="#000000" font-family="sans-serif" font-size="14" lengthAdjust="spacing" textLength="159" x="69.5" y="890.2607">setSymbol(String): void</text><ellipse cx="60.5" cy="903.2109" fill="#84BE84" rx="3" ry="3" style="stroke:#038048;stroke-width:1.0;"/><text fill="#000000" font-family="sans-serif" font-size="14" lengthAdjust="spacing" textLength="123" x="69.5" y="906.5576">addInfo(Info): void</text><ellipse cx="60.5" cy="919.5078" fill="#84BE84" rx="3" ry="3" style="stroke:#038048;stroke-width:1.0;"/><text fill="#000000" font-family="sans-serif" font-size="14" lengthAdjust="spacing" textLength="212" x="69.5" y="922.8545">addInfos(ArrayList&lt;Info&gt;): void</text><ellipse cx="60.5" cy="935.8047" fill="#84BE84" rx="3" ry="3" style="stroke:#038048;stroke-width:1.0;"/><text fill="#000000" font-family="sans-serif" font-size="14" lengthAdjust="spacing" textLength="149" x="69.5" y="939.1514">removeInfo(Info): void</text><ellipse cx="60.5" cy="952.1016" fill="#84BE84" rx="3" ry="3" style="stroke:#038048;stroke-width:1.0;"/><text fill="#000000" font-family="sans-serif" font-size="14" lengthAdjust="spacing" textLength="96" x="69.5" y="955.4482">getPosX(): int</text><ellipse cx="60.5" cy="968.3984" fill="#84BE84" rx="3" ry="3" style="stroke:#038048;stroke-width:1.0;"/><text fill="#000000" font-family="sans-serif" font-size="14" lengthAdjust="spacing" textLength="94" x="69.5" y="971.7451">getPosY(): int</text><ellipse cx="60.5" cy="984.6953" fill="#84BE84" rx="3" ry="3" style="stroke:#038048;stroke-width:1.0;"/><text fill="#000000" font-family="sans-serif" font-size="14" lengthAdjust="spacing" textLength="118" x="69.5" y="988.042">getColor(): String</text><ellipse cx="60.5" cy="1000.9922" fill="#84BE84" rx="3" ry="3" style="stroke:#038048;stroke-width:1.0;"/><text fill="#000000" font-family="sans-serif" font-size="14" lengthAdjust="spacing" textLength="132" x="69.5" y="1004.3389">getSymbol(): String</text><ellipse cx="60.5" cy="1017.2891" fill="#84BE84" rx="3" ry="3" style="stroke:#038048;stroke-width:1.0;"/><text fill="#000000" font-family="sans-serif" font-size="14" lengthAdjust="spacing" textLength="181" x="69.5" y="1020.6357">getInfos(): ArrayList&lt;Info&gt;</text></g></a><!--class map.Wall--><a href="Wall.html" target="_top" title="Wall.html" xlink:actuate="onRequest" xlink:href="Wall.html" xlink:show="new" xlink:title="Wall.html" xlink:type="simple"><g id="elem_map.Wall"><rect codeLine="70" fill="#F1F1F1" height="64.2969" id="map.Wall" rx="2.5" ry="2.5" style="stroke:#181818;stroke-width:0.5;" width="105" x="319.5" y="1089"/><ellipse cx="355.2" cy="1105" fill="#ADD1B2" rx="11" ry="11" style="stroke:#181818;stroke-width:1.0;"/><path d="M358.1688,1110.6406 Q357.5906,1110.9375 356.95,1111.0781 Q356.3094,1111.2344 355.6063,1111.2344 Q353.1063,1111.2344 351.7781,1109.5938 Q350.4656,1107.9375 350.4656,1104.8125 Q350.4656,1101.6875 351.7781,1100.0313 Q353.1063,1098.375 355.6063,1098.375 Q356.3094,1098.375 356.95,1098.5313 Q357.6063,1098.6875 358.1688,1098.9844 L358.1688,1101.7031 Q357.5438,1101.125 356.95,1100.8594 Q356.3563,1100.5781 355.7313,1100.5781 Q354.3875,1100.5781 353.7,1101.6563 Q353.0125,1102.7188 353.0125,1104.8125 Q353.0125,1106.9063 353.7,1107.9844 Q354.3875,1109.0469 355.7313,1109.0469 Q356.3563,1109.0469 356.95,1108.7813 Q357.5438,1108.5 358.1688,1107.9219 L358.1688,1110.6406 Z " fill="#000000"/><text fill="#000000" font-family="sans-serif" font-size="14" lengthAdjust="spacing" textLength="27" x="373.8" y="1109.8467">Wall</text><line style="stroke:#181818;stroke-width:0.5;" x1="320.5" x2="423.5" y1="1121" y2="1121"/><line style="stroke:#181818;stroke-width:0.5;" x1="320.5" x2="423.5" y1="1129" y2="1129"/><ellipse cx="330.5" cy="1142.6484" fill="#84BE84" rx="3" ry="3" style="stroke:#038048;stroke-width:1.0;"/><text fill="#000000" font-family="sans-serif" font-size="14" lengthAdjust="spacing" textLength="79" x="339.5" y="1145.9951">Wall(int, int)</text></g></a><!--reverse link map.Element to map.Exit--><g id="link_map.Element_map.Exit"><path codeLine="74" d="M112.71,1045.91 C104.04,1062.08 96.19,1076.74 89.79,1088.67 " fill="none" id="map.Element-backto-map.Exit" style="stroke:#181818;stroke-width:1.0;"/><polygon fill="none" points="106.58,1042.52,122.2,1028.2,118.92,1049.14,106.58,1042.52" style="stroke:#181818;stroke-width:1.0;"/></g><!--link map.Room to map.Element--><g id="link_map.Room_map.Element"><path codeLine="75" d="M222,562.2 C222,591.36 222,620.67 222,648.74 " fill="none" id="map.Room-to-map.Element" style="stroke:#181818;stroke-width:1.0;"/><polygon fill="#181818" points="222,653.96,226,644.96,222,648.96,218,644.96,222,653.96" style="stroke:#181818;stroke-width:1.0;"/><text fill="#000000" font-family="sans-serif" font-size="13" lengthAdjust="spacing" textLength="69" x="223" y="605.0669">everyMaps</text><text fill="#000000" font-family="sans-serif" font-size="13" lengthAdjust="spacing" textLength="29" x="243" y="620.1997">map</text><text fill="#000000" font-family="sans-serif" font-size="13" lengthAdjust="spacing" textLength="7" x="214.8523" y="642.8239">*</text></g><!--reverse link map.Element to map.Border--><g id="link_map.Element_map.Border"><path codeLine="76" d="M222,1048.21 C222,1063.47 222,1077.31 222,1088.67 " fill="none" id="map.Element-backto-map.Border" style="stroke:#181818;stroke-width:1.0;"/><polygon fill="none" points="215,1048.2,222,1028.2,229,1048.2,215,1048.2" style="stroke:#181818;stroke-width:1.0;"/></g><!--reverse link map.Exit to map.Staircase--><g id="link_map.Exit_map.Staircase"><path codeLine="77" d="M81.32,1173.14 C83.57,1187.01 85.94,1201.59 87.95,1213.97 " fill="none" id="map.Exit-backto-map.Staircase" style="stroke:#181818;stroke-width:1.0;"/><polygon fill="none" points="74.35,1173.9,78.05,1153.04,88.17,1171.66,74.35,1173.9" style="stroke:#181818;stroke-width:1.0;"/></g><!--reverse link map.Element to map.Wall--><g id="link_map.Element_map.Wall"><path codeLine="78" d="M332.02,1045.91 C340.75,1062.08 348.66,1076.74 355.09,1088.67 " fill="none" id="map.Element-backto-map.Wall" style="stroke:#181818;stroke-width:1.0;"/><polygon fill="none" points="325.81,1049.13,322.47,1028.2,338.13,1042.48,325.81,1049.13" style="stroke:#181818;stroke-width:1.0;"/></g><text fill="#888888" font-family="sans-serif" font-size="10" lengthAdjust="spacing" textLength="186" x="124" y="1309.2822">UMLDoclet 2.1.0, PlantUML 1.2022.14</text><!--SRC=[bLRVQzim47xFNo4A0sU9mxP7Km9j5yQW7QLfjuMk3ufpISHaoKWYhTTsV_lkREUN8pcT7onRtwTFfxlJIOmnfdW6DkSfi8pdxBdJOVMJIcuj6pq9n-xlgHaiNIOV7f33TfuUGP5Ghi_mrTrWhqsb6wqpLAB6h_Hi7NSYVMMzL6ipimaxCuONbyAwqmlg4Oexi4F_eDYc2HkdN2am0La9Av2tHGu9cRf7YfyAJsSkUG4cOTTb6vXt2WkXb52BX4srbi3LldzemHx_x66-xaRV0bnbHjJr6jHpUkmCcd75Sw9KFqqDT0xwa2XhYogp4hRIOhQ_-ZNxdAU_oo07M0xbnZb_L3T89j88Ov09ShHVS4GmsEZOn3-ubCTPTqx8eoIotqQjbB7ZmgJSGhIJRAqZpeJvWfxSeRSuSpMTqlm7EPRf5LJnzWqZbFplHIadnk8FU7NJ9M3O96IWt7SknKou8gh_- -ohckjk864DM72t-XiyeaiMu9-QfqvejSt8WD8SnPOKxy8LEUQZNunMkKwA9k6WZfoZjy5W9Qa-0bMf0jzIbpPnHydDjr_rxpP7tY1SEvkgP_Nb5urpRN_wYe-s4rzSjTJ6kxrZMsHJBVsOm83lLLJAW66ZabTcxfI6IcdRDePt_szyWouiYKHjgOY9U8tU2Mtl6f-quHVahwWs8C0Pbuvh8_7PRDVO8C56JHVvo0Oeuzi55_NIFNkxnYOXh5foy0nOBpTCg5RI3QVBGQvJgSP4foQm8GbgtpNh_NBw4iVblME3b5U7E1woa_SdQrh2y3Gt1PuzzfV2gujVfYe3MunkCoMmsSd-SMHjPyU-514iEdEjgRcxkloiKmcEVHfy77peqtci7FQoTsYJnS8OTVy1]--></g></svg>