<?xml version="1.0" encoding="UTF-8" standalone="no"?><svg xmlns="http://www.w3.org/2000/svg" xmlns:xlink="http://www.w3.org/1999/xlink" contentStyleType="text/css" height="760px" preserveAspectRatio="none" style="width:542px;height:760px;background:#FFFFFF;" version="1.1" viewBox="0 0 542 760" width="542px" zoomAndPan="magnify"><defs/><g><!--cluster utility--><g id="cluster_utility"><path d="M8.5,6 L52.5,6 A3.75,3.75 0 0 1 55,8.5 L62,28.2969 L532.5,28.2969 A2.5,2.5 0 0 1 535,30.7969 L535,732.5 A2.5,2.5 0 0 1 532.5,735 L8.5,735 A2.5,2.5 0 0 1 6,732.5 L6,8.5 A2.5,2.5 0 0 1 8.5,6 " fill="none" style="stroke:#000000;stroke-width:1.5;"/><line style="stroke:#000000;stroke-width:1.5;" x1="6" x2="62" y1="28.2969" y2="28.2969"/><text fill="#000000" font-family="sans-serif" font-size="14" font-weight="bold" lengthAdjust="spacing" textLength="43" x="10" y="20.9951">utility</text></g><!--class utility.Coordinates--><a href="Coordinates.html" target="_top" title="Coordinates.html" xlink:actuate="onRequest" xlink:href="Coordinates.html" xlink:show="new" xlink:title="Coordinates.html" xlink:type="simple"><g id="elem_utility.Coordinates"><rect codeLine="3" fill="#F1F1F1" height="145.7813" id="utility.Coordinates" rx="2.5" ry="2.5" style="stroke:#181818;stroke-width:0.5;" width="327" x="21.5" y="41"/><ellipse cx="138.75" cy="57" fill="#ADD1B2" rx="11" ry="11" style="stroke:#181818;stroke-width:1.0;"/><path d="M141.7188,62.6406 Q141.1406,62.9375 140.5,63.0781 Q139.8594,63.2344 139.1563,63.2344 Q136.6563,63.2344 135.3281,61.5938 Q134.0156,59.9375 134.0156,56.8125 Q134.0156,53.6875 135.3281,52.0313 Q136.6563,50.375 139.1563,50.375 Q139.8594,50.375 140.5,50.5313 Q141.1563,50.6875 141.7188,50.9844 L141.7188,53.7031 Q141.0938,53.125 140.5,52.8594 Q139.9063,52.5781 139.2813,52.5781 Q137.9375,52.5781 137.25,53.6563 Q136.5625,54.7188 136.5625,56.8125 Q136.5625,58.9063 137.25,59.9844 Q137.9375,61.0469 139.2813,61.0469 Q139.9063,61.0469 140.5,60.7813 Q141.0938,60.5 141.7188,59.9219 L141.7188,62.6406 Z " fill="#000000"/><text fill="#000000" font-family="sans-serif" font-size="14" lengthAdjust="spacing" textLength="84" x="159.25" y="61.8467">Coordinates</text><line style="stroke:#181818;stroke-width:0.5;" x1="22.5" x2="347.5" y1="73" y2="73"/><rect fill="none" height="6" style="stroke:#C82930;stroke-width:1.0;" width="6" x="29.5" y="83.6484"/><text fill="#000000" font-family="sans-serif" font-size="14" lengthAdjust="spacing" textLength="33" x="41.5" y="89.9951">x: int</text><rect fill="none" height="6" style="stroke:#C82930;stroke-width:1.0;" width="6" x="29.5" y="99.9453"/><text fill="#000000" font-family="sans-serif" font-size="14" lengthAdjust="spacing" textLength="33" x="41.5" y="106.292">y: int</text><line style="stroke:#181818;stroke-width:0.5;" x1="22.5" x2="347.5" y1="113.5938" y2="113.5938"/><ellipse cx="32.5" cy="127.2422" fill="#84BE84" rx="3" ry="3" style="stroke:#038048;stroke-width:1.0;"/><text fill="#000000" font-family="sans-serif" font-size="14" lengthAdjust="spacing" textLength="136" x="41.5" y="130.5889">Coordinates(int, int)</text><ellipse cx="32.5" cy="143.5391" fill="#84BE84" rx="3" ry="3" style="stroke:#038048;stroke-width:1.0;"/><text fill="#000000" font-family="sans-serif" font-size="14" lengthAdjust="spacing" textLength="70" x="41.5" y="146.8857">getX(): int</text><ellipse cx="32.5" cy="159.8359" fill="#84BE84" rx="3" ry="3" style="stroke:#038048;stroke-width:1.0;"/><text fill="#000000" font-family="sans-serif" font-size="14" lengthAdjust="spacing" textLength="68" x="41.5" y="163.1826">getY(): int</text><ellipse cx="32.5" cy="176.1328" fill="#84BE84" rx="3" ry="3" style="stroke:#038048;stroke-width:1.0;"/><text fill="#000000" font-family="sans-serif" font-size="14" lengthAdjust="spacing" text-decoration="underline" textLength="301" x="41.5" y="179.4795">getElemCoordinates(Element): Coordinates</text></g></a><!--class utility.Info--><a href="Info.html" target="_top" title="Info.html" xlink:actuate="onRequest" xlink:href="Info.html" xlink:show="new" xlink:title="Info.html" xlink:type="simple"><g id="elem_utility.Info"><rect codeLine="12" fill="#F1F1F1" height="145.7813" id="utility.Info" rx="2.5" ry="2.5" style="stroke:#181818;stroke-width:0.5;" width="135" x="383.5" y="41"/><ellipse cx="434.25" cy="57" fill="#EB937F" rx="11" ry="11" style="stroke:#181818;stroke-width:1.0;"/><path d="M438.3594,63 L430.6406,63 L430.6406,50.6094 L438.3594,50.6094 L438.3594,52.7656 L433.0938,52.7656 L433.0938,55.4375 L437.8594,55.4375 L437.8594,57.5938 L433.0938,57.5938 L433.0938,60.8438 L438.3594,60.8438 L438.3594,63 Z " fill="#000000"/><text fill="#000000" font-family="sans-serif" font-size="14" lengthAdjust="spacing" textLength="25" x="454.75" y="61.8467">Info</text><line style="stroke:#181818;stroke-width:0.5;" x1="384.5" x2="517.5" y1="73" y2="73"/><ellipse cx="394.5" cy="86.6484" fill="none" rx="3" ry="3" style="stroke:#038048;stroke-width:1.0;"/><text fill="#000000" font-family="sans-serif" font-size="14" lengthAdjust="spacing" text-decoration="underline" textLength="40" x="403.5" y="89.9951">NONE</text><ellipse cx="394.5" cy="102.9453" fill="none" rx="3" ry="3" style="stroke:#038048;stroke-width:1.0;"/><text fill="#000000" font-family="sans-serif" font-size="14" lengthAdjust="spacing" text-decoration="underline" textLength="82" x="403.5" y="106.292">IMMOVABLE</text><ellipse cx="394.5" cy="119.2422" fill="none" rx="3" ry="3" style="stroke:#038048;stroke-width:1.0;"/><text fill="#000000" font-family="sans-serif" font-size="14" lengthAdjust="spacing" text-decoration="underline" textLength="64" x="403.5" y="122.5889">HURTFUL</text><ellipse cx="394.5" cy="135.5391" fill="none" rx="3" ry="3" style="stroke:#038048;stroke-width:1.0;"/><text fill="#000000" font-family="sans-serif" font-size="14" lengthAdjust="spacing" text-decoration="underline" textLength="32" x="403.5" y="138.8857">EXIT</text><ellipse cx="394.5" cy="151.8359" fill="none" rx="3" ry="3" style="stroke:#038048;stroke-width:1.0;"/><text fill="#000000" font-family="sans-serif" font-size="14" lengthAdjust="spacing" text-decoration="underline" textLength="103" x="403.5" y="155.1826">GOBACKDOOR</text><ellipse cx="394.5" cy="168.1328" fill="none" rx="3" ry="3" style="stroke:#038048;stroke-width:1.0;"/><text fill="#000000" font-family="sans-serif" font-size="14" lengthAdjust="spacing" text-decoration="underline" textLength="109" x="403.5" y="171.4795">UNREPLACABLE</text><line style="stroke:#181818;stroke-width:0.5;" x1="384.5" x2="517.5" y1="178.7813" y2="178.7813"/></g></a><!--class utility.Score--><a href="Score.html" target="_top" title="Score.html" xlink:actuate="onRequest" xlink:href="Score.html" xlink:show="new" xlink:title="Score.html" xlink:type="simple"><g id="elem_utility.Score"><rect codeLine="21" fill="#F1F1F1" height="471.7188" id="utility.Score" rx="2.5" ry="2.5" style="stroke:#181818;stroke-width:0.5;" width="218" x="76" y="247"/><ellipse cx="160.75" cy="263" fill="#ADD1B2" rx="11" ry="11" style="stroke:#181818;stroke-width:1.0;"/><path d="M163.7188,268.6406 Q163.1406,268.9375 162.5,269.0781 Q161.8594,269.2344 161.1563,269.2344 Q158.6563,269.2344 157.3281,267.5938 Q156.0156,265.9375 156.0156,262.8125 Q156.0156,259.6875 157.3281,258.0313 Q158.6563,256.375 161.1563,256.375 Q161.8594,256.375 162.5,256.5313 Q163.1563,256.6875 163.7188,256.9844 L163.7188,259.7031 Q163.0938,259.125 162.5,258.8594 Q161.9063,258.5781 161.2813,258.5781 Q159.9375,258.5781 159.25,259.6563 Q158.5625,260.7188 158.5625,262.8125 Q158.5625,264.9063 159.25,265.9844 Q159.9375,267.0469 161.2813,267.0469 Q161.9063,267.0469 162.5,266.7813 Q163.0938,266.5 163.7188,265.9219 L163.7188,268.6406 Z " fill="#000000"/><text fill="#000000" font-family="sans-serif" font-size="14" lengthAdjust="spacing" textLength="40" x="181.25" y="267.8467">Score</text><line style="stroke:#181818;stroke-width:0.5;" x1="77" x2="293" y1="279" y2="279"/><rect fill="none" height="6" style="stroke:#C82930;stroke-width:1.0;" width="6" x="84" y="289.6484"/><text fill="#000000" font-family="sans-serif" font-size="14" lengthAdjust="spacing" textLength="86" x="96" y="295.9951">nbDeath: int</text><rect fill="none" height="6" style="stroke:#C82930;stroke-width:1.0;" width="6" x="84" y="305.9453"/><text fill="#000000" font-family="sans-serif" font-size="14" lengthAdjust="spacing" textLength="119" x="96" y="312.292">nbMonsterKill: int</text><rect fill="none" height="6" style="stroke:#C82930;stroke-width:1.0;" width="6" x="84" y="322.2422"/><text fill="#000000" font-family="sans-serif" font-size="14" lengthAdjust="spacing" textLength="131" x="96" y="328.5889">nbChestsOpen: int</text><rect fill="none" height="6" style="stroke:#C82930;stroke-width:1.0;" width="6" x="84" y="338.5391"/><text fill="#000000" font-family="sans-serif" font-size="14" lengthAdjust="spacing" textLength="129" x="96" y="344.8857">nbRoomFound: int</text><rect fill="none" height="6" style="stroke:#C82930;stroke-width:1.0;" width="6" x="84" y="354.8359"/><text fill="#000000" font-family="sans-serif" font-size="14" lengthAdjust="spacing" textLength="84" x="96" y="361.1826">nbEtage: int</text><line style="stroke:#181818;stroke-width:0.5;" x1="77" x2="293" y1="368.4844" y2="368.4844"/><ellipse cx="87" cy="382.1328" fill="#84BE84" rx="3" ry="3" style="stroke:#038048;stroke-width:1.0;"/><text fill="#000000" font-family="sans-serif" font-size="14" lengthAdjust="spacing" textLength="50" x="96" y="385.4795">Score()</text><ellipse cx="87" cy="398.4297" fill="#84BE84" rx="3" ry="3" style="stroke:#038048;stroke-width:1.0;"/><text fill="#000000" font-family="sans-serif" font-size="14" lengthAdjust="spacing" textLength="167" x="96" y="401.7764">Score(int, int, int, int, int)</text><ellipse cx="87" cy="414.7266" fill="#84BE84" rx="3" ry="3" style="stroke:#038048;stroke-width:1.0;"/><text fill="#000000" font-family="sans-serif" font-size="14" lengthAdjust="spacing" textLength="73" x="96" y="418.0732">Score(File)</text><ellipse cx="87" cy="431.0234" fill="#84BE84" rx="3" ry="3" style="stroke:#038048;stroke-width:1.0;"/><text fill="#000000" font-family="sans-serif" font-size="14" lengthAdjust="spacing" textLength="115" x="96" y="434.3701">addDeath(): void</text><ellipse cx="87" cy="447.3203" fill="#84BE84" rx="3" ry="3" style="stroke:#038048;stroke-width:1.0;"/><text fill="#000000" font-family="sans-serif" font-size="14" lengthAdjust="spacing" textLength="156" x="96" y="450.667">addMonsterKills(): void</text><ellipse cx="87" cy="463.6172" fill="#84BE84" rx="3" ry="3" style="stroke:#038048;stroke-width:1.0;"/><text fill="#000000" font-family="sans-serif" font-size="14" lengthAdjust="spacing" textLength="160" x="96" y="466.9639">addChestsOpen(): void</text><ellipse cx="87" cy="479.9141" fill="#84BE84" rx="3" ry="3" style="stroke:#038048;stroke-width:1.0;"/><text fill="#000000" font-family="sans-serif" font-size="14" lengthAdjust="spacing" textLength="158" x="96" y="483.2607">addRoomFound(): void</text><ellipse cx="87" cy="496.2109" fill="#84BE84" rx="3" ry="3" style="stroke:#038048;stroke-width:1.0;"/><text fill="#000000" font-family="sans-serif" font-size="14" lengthAdjust="spacing" textLength="113" x="96" y="499.5576">addEtage(): void</text><ellipse cx="87" cy="512.5078" fill="#84BE84" rx="3" ry="3" style="stroke:#038048;stroke-width:1.0;"/><text fill="#000000" font-family="sans-serif" font-size="14" lengthAdjust="spacing" textLength="120" x="96" y="515.8545">getNbDeath(): int</text><ellipse cx="87" cy="528.8047" fill="#84BE84" rx="3" ry="3" style="stroke:#038048;stroke-width:1.0;"/><text fill="#000000" font-family="sans-serif" font-size="14" lengthAdjust="spacing" textLength="161" x="96" y="532.1514">getNbMonsterKills(): int</text><ellipse cx="87" cy="545.1016" fill="#84BE84" rx="3" ry="3" style="stroke:#038048;stroke-width:1.0;"/><text fill="#000000" font-family="sans-serif" font-size="14" lengthAdjust="spacing" textLength="165" x="96" y="548.4482">getNbChestsOpen(): int</text><ellipse cx="87" cy="561.3984" fill="#84BE84" rx="3" ry="3" style="stroke:#038048;stroke-width:1.0;"/><text fill="#000000" font-family="sans-serif" font-size="14" lengthAdjust="spacing" textLength="163" x="96" y="564.7451">getNbRoomFound(): int</text><ellipse cx="87" cy="577.6953" fill="#84BE84" rx="3" ry="3" style="stroke:#038048;stroke-width:1.0;"/><text fill="#000000" font-family="sans-serif" font-size="14" lengthAdjust="spacing" textLength="118" x="96" y="581.042">getNbEtage(): int</text><ellipse cx="87" cy="593.9922" fill="#84BE84" rx="3" ry="3" style="stroke:#038048;stroke-width:1.0;"/><text fill="#000000" font-family="sans-serif" font-size="14" lengthAdjust="spacing" textLength="108" x="96" y="597.3389">save(): Boolean</text><ellipse cx="87" cy="610.2891" fill="#84BE84" rx="3" ry="3" style="stroke:#038048;stroke-width:1.0;"/><text fill="#000000" font-family="sans-serif" font-size="14" lengthAdjust="spacing" textLength="83" x="96" y="613.6357">reset(): void</text><ellipse cx="87" cy="626.5859" fill="#84BE84" rx="3" ry="3" style="stroke:#038048;stroke-width:1.0;"/><text fill="#000000" font-family="sans-serif" font-size="14" lengthAdjust="spacing" textLength="147" x="96" y="629.9326">setNbDeath(int): void</text><ellipse cx="87" cy="642.8828" fill="#84BE84" rx="3" ry="3" style="stroke:#038048;stroke-width:1.0;"/><text fill="#000000" font-family="sans-serif" font-size="14" lengthAdjust="spacing" textLength="180" x="96" y="646.2295">setNbMonsterKill(int): void</text><ellipse cx="87" cy="659.1797" fill="#84BE84" rx="3" ry="3" style="stroke:#038048;stroke-width:1.0;"/><text fill="#000000" font-family="sans-serif" font-size="14" lengthAdjust="spacing" textLength="192" x="96" y="662.5264">setNbChestsOpen(int): void</text><ellipse cx="87" cy="675.4766" fill="#84BE84" rx="3" ry="3" style="stroke:#038048;stroke-width:1.0;"/><text fill="#000000" font-family="sans-serif" font-size="14" lengthAdjust="spacing" textLength="190" x="96" y="678.8232">setNbRoomFound(int): void</text><ellipse cx="87" cy="691.7734" fill="#84BE84" rx="3" ry="3" style="stroke:#038048;stroke-width:1.0;"/><text fill="#000000" font-family="sans-serif" font-size="14" lengthAdjust="spacing" textLength="145" x="96" y="695.1201">setNbEtage(int): void</text><ellipse cx="87" cy="708.0703" fill="#84BE84" rx="3" ry="3" style="stroke:#038048;stroke-width:1.0;"/><text fill="#000000" font-family="sans-serif" font-size="14" lengthAdjust="spacing" textLength="94" x="96" y="711.417">display(): void</text></g></a><text fill="#888888" font-family="sans-serif" font-size="10" lengthAdjust="spacing" textLength="186" x="171" y="750.2822">UMLDoclet 2.1.0, PlantUML 1.2022.14</text><!--SRC=[VPJBRi8m44Nt_GflAe5AKTibEmYXHUI1Kb9H8HPECe0bnqQnGKM8Vw-JKlAoyIAZpBtEpD7OGGWXXbCGUnm3EaX2YJoXyyC3kgwOOY6GnNcM48Ob2BHQLTxwEvdIzLhjG9Nr_3D0XCbwxjJEFLM-r55YBtTqwvOjo6MdgzchX6-TS1OIIn9V2eTD8QqMoTz1rHXKaMxRBoKti4EAfcp35MyUzA1bBS_tR8CqTLt_QpXoJFf762mceMDGxULqOP3U_T7GcerzFp0OGY-mvyxGgXM_D8Vx6VCC56OH3GDbqHYmt6d6oYANCo4Xcn5AjRgr0o65lmUcbGFEqma_i4IhsX9lGJFzejbELvVyFqYDXzOx8HGQ0awIWZK_MqTEafPQuHL6KmbjjDp0ZOu2Ng-gi-r5jpvrbyEBcetgNVLEzPvQgthBhTUMBF2n44QSKy2iBcOWGEeHHOb8YYjhi5Gmxnihf7Tz9UrTsn-noP8GiQVur4AxNhzhYDNF23AquJmFeUkCUKn1ehV-Q_-bX-OKCwcowF48cI1SZUWN]--></g></svg>